<?xml version="1.0" encoding="UTF-8" standalone="no"?>
<svg width="425px" height="416px" viewBox="0 0 425 416" version="1.1" xmlns="http://www.w3.org/2000/svg" xmlns:xlink="http://www.w3.org/1999/xlink">
    <!-- Generator: Sketch 50.2 (55047) - http://www.bohemiancoding.com/sketch -->
    <title>Artboard 1</title>
    <desc>Created with Sketch.</desc>
    <defs>
        <linearGradient x1="131.255798%" y1="19.0223869%" x2="-17.7891677%" y2="64.0424149%" id="linearGradient-1">
            <stop stop-color="#8CE2FF" offset="0%"></stop>
            <stop stop-color="#86D9FD" offset="30.82%"></stop>
            <stop stop-color="#77C0F6" offset="81.64%"></stop>
            <stop stop-color="#71B5F3" offset="100%"></stop>
        </linearGradient>
        <linearGradient x1="120.690724%" y1="81.3061678%" x2="-5.61042559%" y2="25.371837%" id="linearGradient-2">
            <stop stop-color="#FFB138" offset="0%"></stop>
            <stop stop-color="#F59670" offset="100%"></stop>
        </linearGradient>
        <polygon id="path-3" points="0.8783 0.265 71.5863 0.265 71.5863 104.3833 0.8783 104.3833"></polygon>
        <linearGradient x1="118.35136%" y1="7.00473254%" x2="54.2201955%" y2="47.3466535%" id="linearGradient-5">
            <stop stop-color="#EC6B8C" offset="0%"></stop>
            <stop stop-color="#FF7C89" offset="100%"></stop>
        </linearGradient>
    </defs>
    <g id="Artboard-1" stroke="none" stroke-width="1" fill="none" fill-rule="evenodd">
        <polygon id="Fill-1" fill="url(#linearGradient-1)" points="365.3125 268.3112 347.2065 257.7892 347.0335 196.8382 365.1395 207.3612"></polygon>
        <polygon id="Fill-2" fill="#ECF5FF" points="365.1396 207.361 347.0336 196.839 364.2336 186.907 382.3396 197.432"></polygon>
        <polygon id="Fill-3" fill="url(#linearGradient-1)" points="382.3398 197.4323 382.5108 258.3813 365.3128 268.3113 365.1398 207.3613"></polygon>
        <polygon id="Fill-4" fill="url(#linearGradient-1)" points="348.1104 278.2438 330.0044 267.7198 329.9484 248.7028 348.0574 259.2238"></polygon>
        <polygon id="Fill-5" fill="#ECF5FF" points="348.0576 259.2243 329.9486 248.7033 347.1536 238.7713 365.2596 249.2923"></polygon>
        <polygon id="Fill-6" fill="url(#linearGradient-1)" points="365.2598 249.2926 365.3128 268.3116 348.1108 278.2436 348.0578 259.2246"></polygon>
        <polygon id="Fill-7" fill="url(#linearGradient-1)" points="380.97 137.4847 425.421 133.2767 382.905 108.7267"></polygon>
        <polygon id="Fill-8" fill="#ABBECF" points="380.9697 137.485 379.0337 137.669 382.9057 108.727"></polygon>
        <polygon id="Fill-9" fill="#ABBECF" points="380.97 137.4847 380.929 138.0907 425.421 133.2767"></polygon>
        <polygon id="Fill-10" fill="#8CA4BB" points="379.0341 137.6683 378.9501 138.3033 380.9291 138.0903 380.9701 137.4843"></polygon>
        <polygon id="Fill-11" fill="#C2CFDA" points="380.9287 138.0905 380.5907 143.1025 371.9427 143.3155 372.3077 142.1665 378.4717 141.8775 378.9497 138.3035"></polygon>
        <polygon id="Fill-12" fill="#8CA4BB" points="372.3076 142.1666 371.9426 143.3146 370.8996 143.3406 371.2096 142.2196"></polygon>
        <polygon id="Fill-13" fill="#ABBECF" points="371.21 142.2194 370.899 143.3404 321.253 144.5554"></polygon>
        <polygon id="Fill-14" fill="#FEFEFF" points="382.9053 108.7272 379.0343 137.6682 378.9503 138.3032 378.4713 141.8772 372.3073 142.1662 371.2103 142.2192 321.2533 144.5552"></polygon>
        <polygon id="Fill-15" fill="#ABBECF" points="370.8994 143.3405 371.9424 143.3155 363.7724 169.1035"></polygon>
        <polygon id="Fill-16" fill="#EDF0F2" points="380.9286 138.0904 380.5916 143.1024 371.9426 143.3144 363.7726 169.1034 425.4206 133.2764"></polygon>
        <polygon id="Fill-17" fill="#A8BDCC" points="363.7728 169.1035 363.7608 172.9065 425.4098 137.0785 425.4208 133.2765"></polygon>
        <polygon id="Fill-18" fill="#A8BDCC" points="363.7725 169.1032 363.7605 172.9062 321.2415 148.3602 321.2525 144.5552"></polygon>
        <polygon id="Fill-19" fill="url(#linearGradient-1)" points="321.2529 144.5553 370.8989 143.3403 363.7729 169.1033"></polygon>
        <path d="M267.5518,120.0783 C267.5128,120.0533 267.4698,120.0333 267.4288,120.0083 L267.2708,119.9183 L267.2658,119.9243 C265.9628,119.2623 264.1038,119.4393 262.0388,120.6293 L209.6438,150.9453 C205.7308,153.2073 202.5268,158.2583 202.5268,162.1723 L202.5268,216.5033 C202.5268,218.4733 203.3368,219.7913 204.6398,220.3323 L210.3978,223.6573 L218.1478,214.6023 L262.0388,189.2003 C265.9558,186.9403 269.1578,181.8883 269.1578,177.9733 L269.1578,128.0743 L273.2348,123.3143 L267.5518,120.0783 Z" id="Fill-20" fill="#F7E4BC"></path>
        <path d="M203.6982,157.424 C202.9602,158.971 202.5262,160.557 202.5262,161.992 L202.5262,216.324 C202.5262,218.294 203.3372,219.61 204.6392,220.151 L210.3972,223.477 L218.1472,214.423 L221.8452,212.278 L227.0592,169.66 L203.6982,157.424 Z" id="Fill-22" fill="#CDA95D"></path>
        <path d="M250.7139,188.3312 L250.7119,188.3332 C250.3119,188.0342 249.6029,188.1182 248.6439,188.6692 L229.3619,199.7992 C227.2939,200.9912 226.3589,203.0482 227.2819,204.3642 L237.3189,218.6432 C237.4679,218.8522 237.6319,219.0002 237.8049,219.1022 L237.8039,219.1062 L243.5619,222.4302 L256.4719,191.6532 L250.7139,188.3312 Z" id="Fill-24" fill="#CDA95D"></path>
        <path d="M268.0947,123.8947 L215.6997,154.2107 C211.7857,156.4707 208.5827,161.5217 208.5827,165.4357 L208.5827,219.7687 C208.5827,223.6847 211.7857,225.0377 215.6997,222.7757 L235.5637,211.2827 L243.0767,221.9757 C244.0027,223.2897 245.5187,222.4167 246.4427,220.0317 L253.9697,200.6337 L268.0947,192.4637 C272.0107,190.2047 275.2137,185.1517 275.2137,181.2407 L275.2137,126.9027 C275.2137,122.9887 272.0107,121.6347 268.0947,123.8947" id="Fill-26" fill="#FFD479"></path>
        <path d="M240.5918,157.38 C236.5938,162.337 235.2398,171.003 237.5378,176.899 C239.8088,182.726 244.8608,183.54 248.8578,178.583 C252.7858,173.69 254.1518,164.9 251.8818,159.076 C249.6078,153.188 244.5218,152.5 240.5918,157.38" id="Fill-28" fill="#FFFFFC"></path>
        <path d="M261.7764,183.9328 C260.4004,172.0978 249.5254,170.5708 241.0344,177.5888 C234.8334,182.7138 231.3714,190.2418 230.6874,202.0698 C235.7214,199.0248 256.2954,186.8628 261.7764,183.9328" id="Fill-30" fill="#FFFFFC"></path>
        <path d="M268.6318,53.5744 L272.1458,55.6154 C270.0188,54.3794 267.0708,54.5534 263.8198,56.4294 C262.5498,57.1644 261.3328,58.1054 260.1868,59.1954 L256.6748,57.1524 C257.8178,56.0644 259.0378,55.1234 260.3058,54.3884 C263.5578,52.5124 266.5048,52.3384 268.6318,53.5744" id="Fill-89" fill="#ECF5FF"></path>
        <path d="M218.5596,68.7111 C221.4076,67.0661 224.0796,66.3851 226.3976,66.5511 C229.6436,60.5801 234.3216,55.3031 239.5266,52.2971 C244.4796,49.4381 248.9616,49.1741 252.2026,51.0571 L255.7136,53.0981 C252.4776,51.2151 247.9916,51.4811 243.0416,54.3381 C237.8326,57.3461 233.1556,62.6211 229.9116,68.5941 C227.5946,68.4261 224.9206,69.1091 222.0736,70.7541 C213.2666,75.8381 206.1456,88.1641 206.1746,98.2891 C206.1886,103.3161 207.9656,106.8541 210.8296,108.5181 L207.3156,106.4771 C204.4526,104.8111 202.6746,101.2741 202.6616,96.2461 C202.6336,86.1231 209.7506,73.7951 218.5596,68.7111" id="Fill-91" fill="#ECF5FF"></path>
        <polygon id="Fill-2" fill="#EDF0F2" points="365.1396 207.361 347.0336 196.839 364.2336 186.907 382.3396 197.432"></polygon>
        <path d="M243.042,54.338 C237.833,57.346 233.155,62.621 229.911,68.594 C227.595,68.426 224.921,69.109 222.073,70.754 C213.267,75.838 206.146,88.164 206.175,98.289 C206.204,108.408 213.368,112.492 222.177,107.406 L263.896,83.318 C270.358,79.588 275.579,70.545 275.56,63.121 C275.538,55.695 270.282,52.701 263.819,56.43 C262.55,57.164 261.333,58.106 260.187,59.195 C258.003,51.932 251.147,49.658 243.042,54.338" id="Fill-93" fill="url(#linearGradient-1)"></path>
        <path d="M123.2773,61.1349 L129.2613,64.6119 C125.6383,62.5069 120.6213,62.8029 115.0813,65.9999 C112.9193,67.2489 110.8443,68.8539 108.8943,70.7089 L102.9103,67.2309 C104.8593,65.3749 106.9353,63.7719 109.0973,62.5229 C114.6363,59.3259 119.6543,59.0299 123.2773,61.1349" id="Fill-95" fill="#ECF5FF"></path>
        <path d="M37.9883,86.9181 C42.8403,84.1161 47.3913,82.9551 51.3423,83.2391 C56.8683,73.0661 64.8363,64.0801 73.7043,58.9591 C82.1383,54.0901 89.7753,53.6401 95.2923,56.8461 L101.2753,60.3221 C95.7613,57.1171 88.1223,57.5671 79.6893,62.4371 C70.8193,67.5581 62.8513,76.5441 57.3263,86.7171 C53.3783,86.4321 48.8263,87.5951 43.9733,90.3961 C28.9723,99.0571 16.8453,120.0531 16.8943,137.2971 C16.9193,145.8591 19.9443,151.8851 24.8213,154.7201 L18.8373,151.2421 C13.9603,148.4071 10.9343,142.3821 10.9103,133.8181 C10.8623,116.5751 22.9873,95.5781 37.9883,86.9181" id="Fill-97" fill="#ECF5FF"></path>
        <path d="M79.6895,62.4367 C70.8195,67.5577 62.8515,76.5437 57.3265,86.7167 C53.3775,86.4317 48.8265,87.5947 43.9735,90.3957 C28.9725,99.0567 16.8455,120.0527 16.8945,137.2967 C16.9435,154.5337 29.1475,161.4897 44.1505,152.8287 L115.2115,111.7997 C126.2185,105.4457 135.1125,90.0407 135.0775,77.3947 C135.0415,64.7487 126.0875,59.6467 115.0815,65.9997 C112.9185,67.2497 110.8445,68.8537 108.8945,70.7087 C105.1725,58.3377 93.4985,54.4647 79.6895,62.4367" id="Fill-99" fill="url(#linearGradient-1)"></path>
        <polygon id="Fill-101" fill="#8D8D8F" points="158.8682 363.1305 158.8552 367.7655 157.9172 368.3105 157.9302 363.6755"></polygon>
        <path d="M167.0649,372.2829 L167.0519,376.9189 C167.0529,376.5179 166.7919,376.1169 166.2679,375.8139 L166.2809,371.1789 C166.8049,371.4819 167.0659,371.8829 167.0649,372.2829" id="Fill-103" fill="#1D2327"></path>
        <path d="M174.5786,370.1471 L174.5646,374.7831 C174.5626,375.7721 173.9166,376.7611 172.6236,377.5121 L172.6376,372.8761 C173.9306,372.1261 174.5756,371.1361 174.5786,370.1471" id="Fill-105" fill="#ECF5FF"></path>
        <path d="M167.0649,372.2829 L167.0519,376.9189 C167.0509,377.3159 166.7909,377.7149 166.2729,378.0149 L166.2859,373.3809 C166.8039,373.0799 167.0639,372.6809 167.0649,372.2829" id="Fill-107" fill="#119499"></path>
        <path d="M78.2559,384.0202 L78.2429,388.6552 C77.7269,388.9552 77.4679,389.3522 77.4669,389.7492 L77.4809,385.1152 C77.4819,384.7162 77.7399,384.3202 78.2559,384.0202" id="Fill-109" fill="#1D2327"></path>
        <path d="M78.2681,386.2252 L78.2551,390.8602 C77.7291,390.5562 77.4661,390.1522 77.4671,389.7492 L77.4801,385.1152 C77.4791,385.5172 77.7421,385.9212 78.2681,386.2252" id="Fill-111" fill="#119499"></path>
        <path d="M89.8701,395.3473 L89.8571,399.9823 C89.2831,399.6503 88.3491,399.6463 87.7801,399.9783 L87.7931,395.3423 C88.3631,395.0113 89.2961,395.0153 89.8701,395.3473" id="Fill-113" fill="#1D2327"></path>
        <polygon id="Fill-115" fill="#161A1D" points="87.793 395.3424 87.78 399.9784 84.029 402.1574 84.042 397.5234"></polygon>
        <path d="M84.042,397.5231 L84.029,402.1581 C83.748,402.3211 83.607,402.5351 83.607,402.7511 L83.62,398.1151 C83.621,397.9001 83.761,397.6851 84.042,397.5231" id="Fill-117" fill="#1D2327"></path>
        <path d="M84.0557,398.7262 L84.0427,403.3612 C83.7527,403.1932 83.6067,402.9712 83.6067,402.7502 L83.6197,398.1152 C83.6197,398.3362 83.7657,398.5582 84.0557,398.7262" id="Fill-119" fill="#BABBBD"></path>
        <polygon id="Fill-121" fill="#8D8E8F" points="87.8242 400.901 87.8112 405.537 84.0432 403.361 84.0552 398.726"></polygon>
        <path d="M89.9014,400.9059 L89.8884,405.5409 C89.3184,405.8719 88.3924,405.8719 87.8114,405.5369 L87.8244,400.9009 C88.4054,401.2359 89.3314,401.2359 89.9014,400.9059" id="Fill-123" fill="#BABBBD"></path>
        <path d="M135.1177,353.1871 L135.1047,357.8221 C134.0587,357.2181 132.3367,357.2181 131.2977,357.8221 L131.3107,353.1871 C132.3497,352.5831 134.0727,352.5831 135.1177,353.1871" id="Fill-125" fill="#1D2327"></path>
        <polygon id="Fill-127" fill="#161A1D" points="149.0298 357.4508 149.0168 362.0858 148.0788 362.6308 148.0928 357.9958"></polygon>
        <polygon id="Fill-129" fill="#161A1E" points="158.8682 363.1305 158.8552 367.7655 149.0162 362.0855 149.0302 357.4505"></polygon>
        <polygon id="Fill-131" fill="#8D8E8F" points="157.9302 363.6754 157.9172 368.3104 148.0792 362.6304 148.0922 357.9954"></polygon>
        <polygon id="Fill-133" fill="#161A1E" points="166.2808 371.1793 166.2678 375.8143 135.1048 357.8223 135.1178 353.1873"></polygon>
        <polygon id="Fill-135" fill="#161A1D" points="131.311 353.1871 131.298 357.8221 78.243 388.6551 78.256 384.0201"></polygon>
        <path d="M166.2808,371.1793 C167.3258,371.7833 167.3248,372.7773 166.2858,373.3803 L113.2308,404.2123 C112.1918,404.8163 110.4768,404.8203 109.4308,404.2163 L78.2678,386.2253 C77.2228,385.6203 77.2168,384.6233 78.2558,384.0203 L131.3108,353.1873 C132.3498,352.5833 134.0728,352.5833 135.1178,353.1873 L166.2808,371.1793 Z" id="Fill-137" fill="url(#linearGradient-2)"></path>
        <polygon id="Fill-139" fill="#0D7074" points="109.4312 404.2164 109.4182 408.8524 78.2552 390.8604 78.2682 386.2254"></polygon>
        <polygon id="Fill-141" fill="#161A1E" points="93.6382 397.5231 93.6252 402.1581 89.8572 399.9821 89.8702 395.3471"></polygon>
        <path d="M94.0767,398.1315 L94.0637,402.7675 C94.0647,402.5465 93.9187,402.3265 93.6247,402.1575 L93.6387,397.5235 C93.9317,397.6915 94.0767,397.9115 94.0767,398.1315" id="Fill-143" fill="#1D2327"></path>
        <path d="M94.0767,398.1315 L94.0637,402.7675 C94.0627,402.9825 93.9217,403.1965 93.6397,403.3605 L93.6527,398.7265 C93.9347,398.5625 94.0767,398.3475 94.0767,398.1315" id="Fill-145" fill="#BABBBD"></path>
        <polygon id="Fill-147" fill="#8D8D8F" points="93.6523 398.7262 93.6393 403.3612 89.8883 405.5402 89.9013 400.9062"></polygon>
        <path d="M93.6382,397.5221 C94.2192,397.8571 94.2222,398.3941 93.6522,398.7261 L89.9012,400.9061 C89.3312,401.2361 88.4052,401.2361 87.8242,400.9011 L84.0552,398.7261 C83.4822,398.3941 83.4722,397.8531 84.0422,397.5231 L87.7932,395.3421 C88.3632,395.0111 89.2962,395.0151 89.8702,395.3471 L93.6382,397.5221 Z" id="Fill-149" fill="#F6F7FA"></path>
        <polygon id="Fill-151" fill="#0D7074" points="166.2861 373.3805 166.2731 378.0155 113.2171 408.8475 113.2301 404.2125"></polygon>
        <path d="M113.2305,404.2125 L113.2175,408.8475 C112.1785,409.4505 110.4635,409.4555 109.4175,408.8525 L109.4315,404.2165 C110.4765,404.8195 112.1915,404.8165 113.2305,404.2125" id="Fill-153" fill="#119499"></path>
        <path d="M89.9014,400.9059 L93.6524,398.7259 C94.2224,398.3939 94.2194,397.8569 93.6384,397.5229 L89.8704,395.3469 C89.2964,395.0149 88.3624,395.0109 87.7934,395.3429 L84.0424,397.5229 C83.4724,397.8529 83.4824,398.3939 84.0554,398.7259 L87.8244,400.9009 C88.4044,401.2359 89.3314,401.2359 89.9014,400.9059 Z M113.2304,404.2129 L166.2864,373.3809 C167.3244,372.7769 167.3264,371.7829 166.2804,371.1789 L135.1174,353.1869 C134.0724,352.5839 132.3504,352.5839 131.3114,353.1869 L78.2554,384.0199 C77.2164,384.6239 77.2224,385.6209 78.2684,386.2249 L109.4314,404.2169 C110.4764,404.8199 112.1924,404.8159 113.2304,404.2129 Z M172.6064,367.3769 C175.2204,368.8859 175.2404,371.3639 172.6374,372.8769 L108.8194,409.9649 C106.2154,411.4779 101.9304,411.4779 99.3174,409.9689 L68.3724,392.1019 C65.7514,390.5899 65.7444,388.1109 68.3484,386.5979 L132.1664,349.5109 C134.7704,347.9979 139.0404,347.9979 141.6614,349.5109 L172.6064,367.3769 Z" id="Fill-155" fill="#0D1F31"></path>
        <path d="M108.8193,409.9645 C106.2153,411.4785 101.9313,411.4785 99.3173,409.9685 L68.3723,392.1025 C67.0543,391.3415 66.3983,390.3375 66.4003,389.3355 L66.3873,393.9705 C66.3843,394.9725 67.0413,395.9765 68.3593,396.7375 L99.3033,414.6035 C101.9183,416.1125 106.2023,416.1125 108.8063,414.5995 L172.6243,377.5125 L172.6373,372.8765 L108.8193,409.9645 Z" id="Fill-157" fill="url(#linearGradient-1)"></path>
        <polygon id="Fill-159" fill="#919191" points="256.4385 271.3541 256.4285 274.3261 252.0125 276.8931 252.0205 273.9201"></polygon>
        <polygon id="Fill-161" fill="#919191" points="247.6377 276.4674 247.6297 279.4404 243.2007 282.0134 243.2077 279.0414"></polygon>
        <polygon id="Fill-163" fill="#919191" points="238.376 281.8502 238.366 284.8232 233.939 287.3962 233.946 284.4242"></polygon>
        <polygon id="Fill-165" fill="#919191" points="229.5635 286.9713 229.5555 289.9433 225.1375 292.5103 225.1455 289.5383"></polygon>
        <polygon id="Fill-167" fill="#919191" points="313.2588 281.0368 313.2488 284.0098 297.8818 292.9398 297.8898 289.9688"></polygon>
        <polygon id="Fill-169" fill="#919191" points="289.4111 290.3912 289.4031 293.3642 256.4291 274.3262 256.4381 271.3542"></polygon>
        <polygon id="Fill-171" fill="#717173" points="289.4111 290.3912 289.4031 293.3642 284.9851 295.9302 284.9951 292.9582"></polygon>
        <polygon id="Fill-173" fill="#727273" points="284.9951 292.9586 284.9851 295.9306 252.0131 276.8936 252.0201 273.9206"></polygon>
        <polygon id="Fill-175" fill="url(#linearGradient-1)" points="289.4111 290.3912 284.9951 292.9582 252.0201 273.9202 256.4381 271.3542"></polygon>
        <polygon id="Fill-177" fill="#919191" points="220.7627 292.0856 220.7547 295.0576 216.3267 297.6316 216.3347 294.6586"></polygon>
        <polygon id="Fill-179" fill="url(#linearGradient-1)" points="313.2588 281.0368 313.3468 298.8918 297.8898 289.9688"></polygon>
        <polygon id="Fill-181" fill="#727273" points="313.3467 298.8922 313.3387 301.8642 297.8817 292.9402 297.8897 289.9682"></polygon>
        <polygon id="Fill-183" fill="#919191" points="296.4189 304.6315 296.4089 307.6035 247.6299 279.4405 247.6379 276.4675"></polygon>
        <polygon id="Fill-185" fill="#727273" points="291.9893 307.2047 291.9813 310.1777 243.2003 282.0137 243.2083 279.0417"></polygon>
        <polygon id="Fill-187" fill="#717173" points="296.4189 304.6315 296.4089 307.6035 291.9819 310.1775 291.9889 307.2045"></polygon>
        <polygon id="Fill-189" fill="#919191" points="287.1553 310.0143 287.1473 312.9863 238.3663 284.8233 238.3763 281.8503"></polygon>
        <polygon id="Fill-191" fill="#727273" points="282.7275 312.5875 282.7175 315.5605 233.9385 287.3965 233.9465 284.4245"></polygon>
        <polygon id="Fill-193" fill="#717173" points="287.1553 310.0143 287.1473 312.9863 282.7183 315.5603 282.7273 312.5873"></polygon>
        <polygon id="Fill-195" fill="url(#linearGradient-1)" points="287.1553 310.0143 282.7273 312.5873 233.9463 284.4243 238.3763 281.8503"></polygon>
        <polygon id="Fill-197" fill="#919191" points="278.3447 315.1344 278.3347 318.1074 229.5557 289.9434 229.5637 286.9714"></polygon>
        <polygon id="Fill-199" fill="#727273" points="273.9268 317.7018 273.9188 320.6738 225.1378 292.5108 225.1458 289.5388"></polygon>
        <polygon id="Fill-201" fill="#717173" points="278.3447 315.1344 278.3347 318.1074 273.9187 320.6734 273.9267 317.7014"></polygon>
        <polygon id="Fill-203" fill="#919191" points="269.5439 320.2487 269.5359 323.2217 220.7549 295.0577 220.7629 292.0857"></polygon>
        <polygon id="Fill-205" fill="#717173" points="269.5439 320.2487 269.5359 323.2217 265.1069 325.7947 265.1139 322.8227"></polygon>
        <polygon id="Fill-207" fill="#727273" points="265.1143 322.8229 265.1063 325.7949 216.3273 297.6319 216.3353 294.6589"></polygon>
        <path d="M256.4385,271.3541 L252.0205,273.9201 L284.9955,292.9581 L289.4115,290.3911 L256.4385,271.3541 Z M273.9265,317.7021 L278.3445,315.1341 L229.5635,286.9711 L225.1455,289.5391 L273.9265,317.7021 Z M291.9895,307.2051 L296.4185,304.6311 L247.6375,276.4671 L243.2085,279.0411 L291.9895,307.2051 Z M265.1165,322.8231 L269.5435,320.2491 L220.7625,292.0851 L216.3345,294.6591 L265.1165,322.8231 Z M282.7275,312.5871 L287.1555,310.0141 L238.3765,281.8501 L233.9465,284.4241 L282.7275,312.5871 Z M297.8895,289.9681 L313.3465,298.8921 L254.6725,332.9901 L198.8025,300.7341 L272.8465,257.7061 L313.2585,281.0371 L297.8895,289.9681 Z" id="Fill-209" fill="#FDFDFD"></path>
        <polygon id="Fill-211" fill="url(#linearGradient-1)" points="296.4189 304.6315 291.9889 307.2045 243.2079 279.0415 247.6379 276.4675"></polygon>
        <polygon id="Fill-213" fill="url(#linearGradient-1)" points="278.3447 315.1344 273.9267 317.7014 225.1457 289.5384 229.5637 286.9714"></polygon>
        <polygon id="Fill-215" fill="url(#linearGradient-1)" points="269.5439 320.2487 265.1139 322.8227 216.3349 294.6587 220.7629 292.0857"></polygon>
        <polygon id="Fill-217" fill="url(#linearGradient-1)" points="313.3467 298.8922 313.3387 301.8642 254.6647 335.9622 254.6727 332.9902"></polygon>
        <polygon id="Fill-219" fill="url(#linearGradient-1)" points="254.6729 332.9899 254.6649 335.9629 198.7949 303.7069 198.8029 300.7339"></polygon>
        <path d="M341.2383,244.6286 C340.9923,244.6206 340.7563,244.5916 340.5193,244.5546 C340.3713,244.3646 340.2203,244.1776 340.0903,243.9626 L341.2383,244.6286 Z M348.9683,224.6266 L348.9673,223.8216 L349.1563,223.7126 L349.9143,224.1516 C349.6233,224.2946 349.3123,224.4506 348.9683,224.6266 Z M353.8063,233.1516 C352.7813,232.5566 351.7543,231.9586 350.7283,231.3626 C350.7303,232.1536 350.6293,232.8496 350.4653,233.4786 L347.6233,231.8276 C347.4613,231.7326 347.1953,231.7846 346.7753,232.0266 L345.4983,232.7636 C345.4983,232.7556 345.4963,232.7416 345.4963,232.7326 L345.4923,231.4626 C345.4943,230.8156 345.5843,230.2286 345.7243,229.6836 L348.6253,231.3686 C348.8183,231.4806 349.1403,231.3926 349.6363,231.1056 L350.7223,230.4786 C350.7223,230.4956 350.7243,230.5116 350.7243,230.5266 C351.7713,231.1366 353.1663,231.9466 354.2133,232.5546 C354.2093,231.5626 354.0083,230.3826 353.2613,229.9486 L349.9273,228.0116 C350.8083,227.5056 352.6703,226.5196 353.7183,226.0216 L353.7113,223.4446 L350.2243,221.4176 L350.2243,221.4196 L350.2243,221.4176 C349.8023,221.5116 349.3593,221.6386 348.8773,221.8106 L348.3713,221.5176 C348.8513,221.1616 349.3283,220.7946 349.8283,220.5076 C351.8243,219.3536 353.6853,218.9356 355.2773,219.1346 C356.2483,220.3986 356.8403,222.1796 356.8453,224.4666 C356.8553,227.5546 355.8263,230.9376 354.1743,234.0246 C354.1893,233.8126 354.2153,233.6126 354.2153,233.3886 L353.8063,233.1516 Z M347.2203,238.5386 L347.2223,239.2746 L346.9863,239.4116 L346.2933,239.0096 C346.5503,238.8806 346.8573,238.7266 347.2203,238.5386 Z M348.0503,238.1076 C348.8103,238.5506 349.5883,239.0016 350.3123,239.4216 L348.0503,238.1076 Z M355.6773,218.5176 C355.8223,218.7006 355.9673,218.8846 356.0933,219.0916 L354.9823,218.4446 C355.2203,218.4546 355.4513,218.4836 355.6773,218.5176 Z M346.4103,242.5626 C344.4063,243.7186 342.5413,244.1406 340.9453,243.9416 C339.9723,242.6756 339.3813,240.8906 339.3753,238.5936 C339.3653,235.5266 340.3883,232.1616 342.0313,229.0856 C342.0253,229.2046 342.0063,229.3146 342.0063,229.4356 L342.0093,230.7066 C342.0113,231.3966 342.1073,232.7476 342.9393,233.2326 L346.2543,235.1576 C344.7013,236.0426 343.0993,236.8356 342.4393,237.1656 L342.4453,239.7246 L345.9333,241.7516 C346.5273,241.6266 346.9533,241.5266 347.4253,241.3516 L347.8223,241.5816 C347.3553,241.9256 346.8943,242.2826 346.4103,242.5626 C346.5583,242.6496 346.7463,242.7596 346.9083,242.8536 L346.4103,242.5626 Z M360.8433,225.6876 C360.8383,225.5236 360.8283,225.3586 360.8163,225.1986 C360.8103,225.1306 360.8063,225.0626 360.7993,224.9956 C360.5843,224.8706 360.3713,224.7456 360.1563,224.6206 C360.3713,224.7456 360.5843,224.8706 360.7993,224.9956 C360.5413,222.1656 359.3833,220.1556 357.6463,219.1466 L355.6993,218.0156 L354.1583,217.1186 C353.4333,216.6986 352.5863,216.4976 351.6813,216.4396 C351.7423,216.4136 351.8063,216.3726 351.8653,216.3496 C352.2403,216.1986 352.6093,216.0716 352.9723,215.9646 C353.1133,215.9216 353.2543,215.8846 353.3943,215.8476 C353.4473,215.8336 353.5003,215.8216 353.5523,215.8086 C353.7773,215.7556 353.9983,215.7106 354.2173,215.6716 C354.3673,215.6466 354.5153,215.6246 354.6643,215.6056 C354.8323,215.5856 355.0003,215.5696 355.1643,215.5586 C356.6893,215.4526 358.0643,215.7576 359.2223,216.4316 L355.7363,214.4036 C354.5763,213.7306 353.2033,213.4276 351.6773,213.5306 C351.5113,213.5426 351.3453,213.5586 351.1773,213.5796 C351.0293,213.5976 350.8813,213.6206 350.7303,213.6466 C350.5113,213.6836 350.2913,213.7286 350.0683,213.7826 C350.0133,213.7946 349.9613,213.8086 349.9083,213.8216 C349.7673,213.8576 349.6273,213.8966 349.4863,213.9376 C349.1233,214.0446 348.7543,214.1736 348.3813,214.3216 C347.7133,214.5876 347.0293,214.9216 346.3323,215.3216 C347.0923,215.7656 348.0063,216.2966 348.8673,216.7966 L346.3323,215.3216 C346.0043,215.5116 345.6793,215.7126 345.3593,215.9256 C346.1153,216.3646 346.8733,216.8046 347.6293,217.2436 C346.8733,216.8046 346.1153,216.3646 345.3593,215.9256 C345.3043,215.9606 345.2503,215.9976 345.1953,216.0346 C345.9333,216.4646 346.6743,216.8926 347.4123,217.3216 C346.6743,216.8926 345.9333,216.4646 345.1953,216.0346 C344.1813,216.7186 343.2033,217.5156 342.2673,218.3996 C342.1543,218.5076 342.0433,218.6166 341.9313,218.7266 C341.6743,218.9786 341.4223,219.2376 341.1723,219.5036 C341.1093,219.5696 341.0473,219.6366 340.9843,219.7046 C341.5623,220.0406 342.1423,220.3766 342.7203,220.7126 C342.3223,220.4826 341.9253,220.2516 341.5293,220.0216 L340.9843,219.7046 C338.1033,222.8376 335.7673,226.8066 334.4163,230.8496 C334.3573,231.0246 334.3013,231.2006 334.2443,231.3766 C334.8223,231.7106 335.4003,232.0466 335.9763,232.3826 C335.5823,232.1516 335.1853,231.9216 334.7893,231.6906 C334.6073,231.5876 334.4263,231.4806 334.2443,231.3766 C334.2183,231.4626 334.1913,231.5506 334.1643,231.6386 C334.0603,231.9836 333.9633,232.3316 333.8733,232.6796 C333.5153,234.0626 333.2813,235.4426 333.1873,236.7866 C333.1813,236.8556 333.1773,236.9216 333.1743,236.9896 C333.1503,237.3806 333.1383,237.7696 333.1403,238.1536 C333.1443,239.5836 333.3203,240.8686 333.6443,241.9936 C333.6583,242.0426 333.6723,242.0896 333.6853,242.1386 C333.7283,242.1926 333.8263,242.2206 333.8863,242.2536 C334.1743,242.4216 334.4613,242.5876 334.7483,242.7556 L334.8013,242.7846 C334.4293,242.5696 334.0583,242.3536 333.6853,242.1386 C333.7523,242.3576 333.8243,242.5696 333.9023,242.7746 C333.9333,242.8126 334.0023,242.8336 334.0453,242.8576 C334.1743,242.9336 334.3043,243.0096 334.4353,243.0856 L333.9023,242.7746 C333.9553,242.9196 334.0113,243.0606 334.0723,243.1966 C334.1363,243.3516 334.2073,243.5016 334.2793,243.6466 C334.3903,243.7656 334.5513,243.8046 334.6853,243.8826 C335.0803,244.1106 335.4743,244.3416 335.8693,244.5696 C336.5023,244.9396 337.1343,245.3066 337.7673,245.6736 C337.6933,245.5266 337.6253,245.3766 337.5583,245.2226 C337.5003,245.0856 337.4433,244.9446 337.3883,244.8026 C336.4763,244.2736 335.5663,243.7416 334.6543,243.2126 C334.8083,243.3026 334.9653,243.3926 335.1193,243.4826 C335.8753,243.9216 336.6333,244.3626 337.3883,244.8026 C337.3103,244.5956 337.2403,244.3826 337.1743,244.1636 C337.1583,244.1166 337.1443,244.0676 337.1313,244.0216 C336.9653,243.4466 336.8423,242.8296 336.7563,242.1756 C336.9573,242.4766 337.1723,242.7616 337.4103,243.0116 C337.7613,243.3746 338.1523,243.6816 338.5783,243.9296 L342.0643,245.9546 L342.0643,245.9566 L342.0643,245.9546 C343.8303,246.9826 346.1953,246.9746 348.8283,245.7476 C348.6233,245.6286 348.4203,245.5096 348.2153,245.3906 C348.4203,245.5096 348.6233,245.6286 348.8283,245.7476 C348.8903,245.7186 348.9513,245.6896 349.0133,245.6576 C349.1603,245.5876 349.3063,245.5136 349.4533,245.4356 C349.6013,245.3576 349.7503,245.2736 349.8983,245.1896 L349.3533,244.8706 C349.5313,244.9746 349.7343,245.0936 349.8983,245.1896 C350.1763,245.0266 350.4513,244.8576 350.7243,244.6756 C350.5523,244.5756 350.3793,244.4746 350.2073,244.3746 C350.3793,244.4746 350.5523,244.5756 350.7243,244.6756 C350.8043,244.6226 350.8843,244.5676 350.9653,244.5136 C352.1333,243.7086 353.2483,242.7246 354.2793,241.6086 C356.8143,238.8706 358.8493,235.3476 359.9513,231.7866 C360.4023,230.3316 360.6973,228.8706 360.8063,227.4526 C360.8143,227.3576 360.8203,227.2616 360.8263,227.1636 C360.8453,226.8376 360.8553,226.5136 360.8533,226.1926 C360.8533,226.0216 360.8493,225.8536 360.8433,225.6876 Z" id="Fill-221" fill="#E77A30"></path>
        <polygon id="Fill-223" fill="#F09A12" points="350.7246 230.527 350.7286 231.363 354.2146 233.388 354.2126 232.554"></polygon>
        <path d="M334.2793,243.6461 C334.9413,244.9761 335.8673,245.9881 337.0003,246.6441 L340.4863,248.6711 C339.3553,248.0131 338.4273,247.0031 337.7673,245.6731 C336.7873,245.1031 335.8063,244.5351 334.8283,243.9641 C334.6443,243.8591 334.4633,243.7531 334.2793,243.6461" id="Fill-225" fill="#F09A12"></path>
        <path d="M349.8965,244.5895 C355.6755,241.2515 360.3515,233.1535 360.3345,226.4935 C360.3145,219.8515 355.6075,217.1695 349.8285,220.5075 C344.0315,223.8535 339.3555,231.9505 339.3755,238.5935 C339.3945,245.2535 344.0995,247.9355 349.8965,244.5895 M349.8265,219.9075 C355.8905,216.4055 360.8345,219.2245 360.8535,226.1935 C360.8755,233.1795 355.9625,241.6875 349.8985,245.1895 C343.8165,248.6985 338.8735,245.8825 338.8535,238.8945 C338.8335,231.9255 343.7465,223.4175 349.8265,219.9075" id="Fill-227" fill="#F09A12"></path>
        <path d="M349.8984,245.1891 C355.9624,241.6871 360.8754,233.1791 360.8534,226.1931 C360.8344,219.2241 355.8904,216.4061 349.8264,219.9081 C343.7464,223.4181 338.8344,231.9251 338.8534,238.8941 C338.8734,245.8821 343.8164,248.6991 349.8984,245.1891 M349.8184,217.3491 C357.1154,213.1361 363.0564,216.5231 363.0824,224.9061 C363.1054,233.3101 357.2014,243.5351 349.9044,247.7481 C342.5914,251.9681 336.6504,248.5841 336.6274,240.1791 C336.6034,231.7961 342.5054,221.5701 349.8184,217.3491" id="Fill-229" fill="#FFCA00"></path>
        <path d="M350.6562,222.8454 L350.6622,224.5874 C351.8942,223.9494 352.8422,223.6384 353.7112,223.4454 L353.7192,226.0214 C352.6602,226.5254 350.7652,227.5274 349.8962,228.0294 C349.8362,228.0644 349.7772,228.0974 349.7192,228.1304 C348.8142,228.6524 348.3812,229.0604 348.3852,230.1034 L348.3852,230.6114 C348.3862,231.4824 348.7052,231.6444 349.6362,231.1054 L351.0412,230.2944 C353.6642,228.7814 354.2072,230.9214 354.2132,232.5544 L354.2152,233.3884 C354.2242,236.8374 352.4412,238.6484 350.7052,239.6504 L350.7092,241.3024 L349.0192,242.2774 L349.0152,240.5894 C347.5782,241.3844 347.0722,241.5114 345.9332,241.7514 L345.9262,239.1934 C346.6212,238.8454 348.3592,237.9884 349.9862,237.0484 C350.7442,236.6114 351.3432,236.0644 351.3402,235.1934 L351.3402,234.5954 C351.3362,233.8684 351.1312,233.5524 350.2612,234.0524 L348.9042,234.8374 C345.7442,236.6614 345.5002,233.8394 345.4962,232.7324 L345.4922,231.4624 C345.5002,228.5684 347.0452,226.7304 348.9722,225.5644 L348.9672,223.8224 L350.6562,222.8454 Z" id="Fill-233" fill="#FFCA00"></path>
        <g id="Group-237" transform="translate(322.000000, -0.265000)">
            <mask id="mask-4" fill="white">
                <use xlink:href="#path-3"></use>
            </mask>
            <g id="Clip-236"></g>
            <path d="M65.9033,0.8003 C65.8773,0.783633333 65.7836333,0.7303 65.6223,0.6403 C64.3143,-0.0157 62.4553,0.1613 60.3903,1.3513 L7.9953,31.6683 C4.0823,33.9303 0.8783,38.9813 0.8783,42.8953 L0.8783,97.2313 C0.8783,99.1993 1.6883,100.5183 2.9913,101.0593 L8.7493,104.3833 L16.4993,95.3303 L60.3903,69.9243 C64.3073,67.6643 67.5093,62.6123 67.5093,58.6963 L67.5093,8.7973 L71.5863,4.0363 L65.9033,0.8003 Z" id="Fill-235" fill="#ECF5FF" mask="url(#mask-4)"></path>
        </g>
        <path d="M324.0498,37.882 C323.3118,39.429 322.8778,41.015 322.8778,42.45 L322.8778,96.786 C322.8778,98.755 323.6888,100.071 324.9908,100.612 L330.7488,103.939 L338.4988,94.886 L342.1968,92.741 L347.4108,50.118 L324.0498,37.882 Z" id="Fill-238" fill="url(#linearGradient-1)"></path>
        <path d="M371.0654,68.7902 L371.0634,68.7922 C370.6634,68.4932 369.9544,68.5772 368.9954,69.1282 L349.7134,80.2612 C347.6454,81.4542 346.7104,83.5112 347.6334,84.8292 L357.6704,99.1042 C357.8194,99.3132 357.9834,99.4622 358.1564,99.5632 L358.1554,99.5672 L363.9134,102.8922 L376.8234,72.1122 L371.0654,68.7902 Z" id="Fill-240" fill="#ECF5FF"></path>
        <path d="M388.4463,4.3527 L336.0513,34.6687 C332.1373,36.9287 328.9343,41.9797 328.9343,45.8937 L328.9343,100.2297 C328.9343,104.1457 332.1373,105.4987 336.0513,103.2377 L355.9153,91.7477 L363.4283,102.4367 C364.3543,103.7507 365.8703,102.8777 366.7943,100.4937 L374.3213,81.0967 L388.4463,72.9227 C392.3623,70.6637 395.5653,65.6107 395.5653,61.6987 L395.5653,7.3607 C395.5653,3.4457 392.3623,2.0917 388.4463,4.3527" id="Fill-242" fill="url(#linearGradient-1)"></path>
        <path d="M360.9434,37.8371 C356.9454,42.7941 355.5914,51.4601 357.8894,57.3571 C360.1604,63.1831 365.2124,63.9971 369.2094,59.0401 C373.1374,54.1481 374.5034,45.3571 372.2334,39.5341 C369.9594,33.6461 364.8734,32.9581 360.9434,37.8371" id="Fill-244" fill="#FFFFFC"></path>
        <path d="M382.1279,64.3898 C380.7519,52.5558 369.8769,51.0288 361.3859,58.0458 C355.1849,63.1728 351.7229,70.7008 351.0389,82.5308 C356.0729,79.4838 376.6469,67.3198 382.1279,64.3898" id="Fill-246" fill="#FFFFFC"></path>
        <g id="Group" transform="translate(23.000000, 139.000000)" fill-rule="nonzero">
            <polygon id="Shape" fill="#6EC7EF" points="9.15672441 95.9689634 9.15672441 186.242159 148.624945 105.499122 148.624945 15.2247134"></polygon>
            <path d="M4.95507087,80.4712317 L142.407953,0.890646341 C143.328315,0.359170732 144.361449,0.418628049 145.17389,0.873658537 L145.175102,0.872445122 L145.205417,0.889432927 C145.207843,0.891859756 145.21148,0.893073171 145.213906,0.8955 L150.479008,3.95451829 L146.612031,17.8044329 L146.612031,108.876055 C146.612031,112.19353 144.84285,115.259829 141.970205,116.918567 L9.53626772,193.600305 L7.99748031,197.762317 L2.696,194.683884 L2.696,194.682671 C1.19965354,193.838134 0.126503937,192.247348 0.126503937,190.282829 L0.126503937,88.8377256 C0.127716535,85.3843476 1.96722835,82.1967073 4.95507087,80.4712317 Z" id="Shape" fill="#8CE2FF"></path>
            <path d="M5.43283465,91.9161585 L5.43283465,193.361262 C5.43283465,197.252683 9.64055118,199.683152 13.0067244,197.739262 L147.275323,119.998213 C150.146756,118.339476 151.915937,115.273177 151.915937,111.955701 L151.915937,6.4007622 C151.915937,4.24331098 149.580472,2.8939939 147.711858,3.97271951 L10.2589764,83.5520915 C7.27234646,85.2763537 5.43283465,88.4652073 5.43283465,91.9161585 Z" id="Shape" fill="#ECF5FF"></path>
            <polygon id="Shape" fill="url(#linearGradient-5)" points="9.15672441 95.9689634 9.15672441 186.242159 148.624945 105.499122 148.624945 15.2247134"></polygon>
        </g>
        <polygon id="Shape" fill="#ECF5FF" fill-rule="nonzero" points="119 222.831312 127 218 127 260.167478 119 265"></polygon>
        <polygon id="Shape" fill="#ECF5FF" fill-rule="nonzero" points="131 215.832522 139 211 139 253.168688 131 258"></polygon>
        <polygon id="Shape" fill="#ECF5FF" fill-rule="nonzero" points="143 208.832522 151 204 151 246.167478 143 251"></polygon>
        <polygon id="Shape" fill="#ECF5FF" fill-rule="nonzero" points="155 201.832522 163 197 163 239.168688 155 244"></polygon>
        <g id="Group" transform="translate(40.000000, 225.000000)" fill="#ECF5FF" fill-rule="nonzero">
            <polygon id="Shape" points="24.7755238 0.946 24.7755238 3.60311111 0.607904762 17.4056667 0.607904762 14.7473333"></polygon>
            <polygon id="Shape" points="24.7755238 8.70588889 0.607904762 22.5084444 0.607904762 19.8501111 24.7755238 6.04755556"></polygon>
            <polygon id="Shape" points="24.7755238 13.8074444 0.607904762 27.61 0.607904762 24.9516667 24.7755238 11.1503333"></polygon>
            <polygon id="Shape" points="24.7755238 18.909 0.607904762 32.7115556 0.607904762 30.0532222 24.7755238 16.2506667"></polygon>
        </g>
        <g id="Group" transform="translate(40.000000, 252.000000)" fill="#ECF5FF" fill-rule="nonzero">
            <polygon id="Shape" points="24.7755238 0.614777778 24.7755238 3.27311111 0.607904762 17.0756667 0.607904762 14.4173333"></polygon>
            <polygon id="Shape" points="24.7755238 8.37466667 0.607904762 22.1772222 0.607904762 19.5188889 24.7755238 5.71755556"></polygon>
            <polygon id="Shape" points="24.7755238 13.4762222 0.607904762 27.2787778 0.607904762 24.6216667 24.7755238 10.8191111"></polygon>
            <polygon id="Shape" points="24.7755238 18.5777778 0.607904762 32.3803333 0.607904762 29.7232222 24.7755238 15.9206667"></polygon>
        </g>
        <path d="M92.4463706,241.23951 C83.3336626,246.445234 75.9692727,259.064873 76.0000964,269.4263 C76.0296871,279.787726 83.4421619,283.966213 92.5536369,278.76049 C101.666345,273.554766 109.029502,260.933907 108.999911,250.5737 C108.969087,240.212274 101.557846,236.033787 92.4463706,241.23951 Z" id="Shape" fill="#ECF5FF" fill-rule="nonzero"></path>
    </g>
</svg>