<?xml version="1.0" encoding="UTF-8" standalone="no"?>
<svg width="484px" height="466px" viewBox="0 0 484 466" version="1.1" xmlns="http://www.w3.org/2000/svg" xmlns:xlink="http://www.w3.org/1999/xlink">
    <!-- Generator: Sketch 50.2 (55047) - http://www.bohemiancoding.com/sketch -->
    <title>286987-P6VMU2-185</title>
    <desc>Created with Sketch.</desc>
    <defs>
        <linearGradient x1="125.724383%" y1="6.25403189%" x2="-12.912251%" y2="68.7665009%" id="linearGradient-1">
            <stop stop-color="#8CE2FF" offset="0%"></stop>
            <stop stop-color="#86D9FD" offset="30.82%"></stop>
            <stop stop-color="#77C0F6" offset="81.64%"></stop>
            <stop stop-color="#71B5F3" offset="100%"></stop>
        </linearGradient>
        <linearGradient x1="118.35136%" y1="7.00473254%" x2="54.2201955%" y2="47.3466535%" id="linearGradient-2">
            <stop stop-color="#EC6B8C" offset="0%"></stop>
            <stop stop-color="#FF7C89" offset="100%"></stop>
        </linearGradient>
        <linearGradient x1="139.551983%" y1="27.6115896%" x2="-25.1191288%" y2="60.8703324%" id="linearGradient-3">
            <stop stop-color="#8CE2FF" offset="0%"></stop>
            <stop stop-color="#86D9FD" offset="30.82%"></stop>
            <stop stop-color="#77C0F6" offset="81.64%"></stop>
            <stop stop-color="#71B5F3" offset="100%"></stop>
        </linearGradient>
        <linearGradient x1="120.690724%" y1="81.3061678%" x2="-5.61042559%" y2="25.371837%" id="linearGradient-4">
            <stop stop-color="#FFB138" offset="0%"></stop>
            <stop stop-color="#F59670" offset="100%"></stop>
        </linearGradient>
        <linearGradient x1="143.018278%" y1="29.716843%" x2="-28.1749271%" y2="60.0915138%" id="linearGradient-5">
            <stop stop-color="#8CE2FF" offset="0%"></stop>
            <stop stop-color="#86D9FD" offset="30.82%"></stop>
            <stop stop-color="#77C0F6" offset="81.64%"></stop>
            <stop stop-color="#71B5F3" offset="100%"></stop>
        </linearGradient>
        <linearGradient x1="131.255798%" y1="19.0223869%" x2="-17.7891677%" y2="64.0424149%" id="linearGradient-6">
            <stop stop-color="#8CE2FF" offset="0%"></stop>
            <stop stop-color="#86D9FD" offset="30.82%"></stop>
            <stop stop-color="#77C0F6" offset="81.64%"></stop>
            <stop stop-color="#71B5F3" offset="100%"></stop>
        </linearGradient>
        <linearGradient x1="125.728662%" y1="6.25365779%" x2="-12.9085375%" y2="68.7623875%" id="linearGradient-7">
            <stop stop-color="#8CE2FF" offset="0%"></stop>
            <stop stop-color="#86D9FD" offset="30.82%"></stop>
            <stop stop-color="#77C0F6" offset="81.64%"></stop>
            <stop stop-color="#71B5F3" offset="100%"></stop>
        </linearGradient>
        <linearGradient x1="-0.000357839366%" y1="49.999854%" x2="100.000716%" y2="49.999854%" id="linearGradient-8">
            <stop stop-color="#EC6B8C" offset="0%"></stop>
            <stop stop-color="#FF7C89" offset="100%"></stop>
        </linearGradient>
        <linearGradient x1="7.44398204e-05%" y1="49.9986052%" x2="100.001466%" y2="49.9986052%" id="linearGradient-9">
            <stop stop-color="#EC6B8C" offset="0%"></stop>
            <stop stop-color="#FF7C89" offset="100%"></stop>
        </linearGradient>
        <linearGradient x1="-0.000459389991%" y1="49.9987477%" x2="99.9995307%" y2="49.9987477%" id="linearGradient-10">
            <stop stop-color="#EC6B8C" offset="0%"></stop>
            <stop stop-color="#FF7C89" offset="100%"></stop>
        </linearGradient>
        <linearGradient x1="-0.000459389991%" y1="49.999473%" x2="99.9995307%" y2="49.999473%" id="linearGradient-11">
            <stop stop-color="#EC6B8C" offset="0%"></stop>
            <stop stop-color="#FF7C89" offset="100%"></stop>
        </linearGradient>
        <linearGradient x1="127.885569%" y1="12.4945516%" x2="-14.8151243%" y2="66.4572992%" id="linearGradient-12">
            <stop stop-color="#8CE2FF" offset="0%"></stop>
            <stop stop-color="#86D9FD" offset="30.82%"></stop>
            <stop stop-color="#77C0F6" offset="81.64%"></stop>
            <stop stop-color="#71B5F3" offset="100%"></stop>
        </linearGradient>
        <linearGradient x1="125.727342%" y1="6.25805048%" x2="-12.9095933%" y2="68.7711053%" id="linearGradient-13">
            <stop stop-color="#8CE2FF" offset="0%"></stop>
            <stop stop-color="#86D9FD" offset="30.82%"></stop>
            <stop stop-color="#77C0F6" offset="81.64%"></stop>
            <stop stop-color="#71B5F3" offset="100%"></stop>
        </linearGradient>
    </defs>
    <g id="Page-1" stroke="none" stroke-width="1" fill="none" fill-rule="evenodd">
        <g id="Desktop-HD" transform="translate(-734.000000, -247.000000)" fill-rule="nonzero">
            <g id="286987-P6VMU2-185" transform="translate(734.000000, 247.000000)">
                <path d="M296.509803,451.119394 L296.470952,451.096454 L275.675698,439.134016 C275.362458,438.955328 274.981227,438.955328 274.669201,439.134016 L255.55306,450.110048 L251.276969,452.562179 C250.90788,452.773465 250.90788,453.29987 251.275755,453.509949 L251.958084,453.903546 L272.753338,465.865984 C273.065364,466.044672 273.447808,466.044672 273.759834,465.865984 L293.894613,454.306801 L296.508589,452.807271 C297.162994,452.431785 297.164208,451.496087 296.509803,451.119394 Z" id="Shape" fill="#2B3990" opacity="0.07"></path>
                <g id="Group" transform="translate(281.000000, 130.000000)">
                    <path d="M45.2429231,13.3563529 L41.8974872,15.4955882 L40.4079487,16.8739118 L6.016,16.0864706 L5.06515385,15.2097941 L0.846,14.3210588 L0.846,27.9788824 C0.839974359,28.167 0.930358974,28.3587353 1.11835897,28.4672647 L1.79564103,28.8591765 L22.4370769,40.8070588 C22.7467949,40.9855294 23.1276154,40.9867353 23.4373333,40.8070588 L43.4219744,29.2607353 L46.0166154,27.7630294 C46.351641,27.5700882 46.5143333,27.2264118 46.5022821,26.8875588 L46.5034872,26.8875588 L46.5034872,13.2297353 L45.2429231,13.3563529 Z" id="Shape" fill="url(#linearGradient-1)"></path>
                    <path d="M46.0178205,12.4193824 L45.9792564,12.3976765 L25.3378205,0.449794118 C25.0281026,0.271323529 24.6460769,0.271323529 24.3375641,0.449794118 L5.36282051,11.4112647 L1.11835897,13.8616176 C0.753205128,14.0726471 0.753205128,14.5984118 1.11835897,14.8106471 L1.79564103,15.2025588 L22.4370769,27.1504412 C22.7467949,27.3289118 23.1276154,27.3289118 23.4373333,27.1504412 L43.4219744,15.6053235 L46.0166154,14.1076176 C46.6649744,13.7313824 46.6661795,12.7944118 46.0178205,12.4193824 Z" id="Shape" fill="#ECF5FF"></path>
                </g>
                <g id="Group" transform="translate(266.000000, 25.000000)">
                    <polygon id="Shape" fill="#FFD479" points="88.9577027 52.17 88.9577027 109.044692 1.28918919 58.1737582 1.28918919 1.30028571"></polygon>
                    <polygon id="Shape" fill="#ECF5FF" points="23.7222973 21.8291868 23.7222973 19.7543407 5.14702703 8.97758242 5.14702703 11.0536484"></polygon>
                    <polygon id="Shape" fill="#ECF5FF" points="23.7222973 25.8142088 23.7222973 23.7381429 5.14702703 12.9613846 5.14702703 15.0362308"></polygon>
                    <polygon id="Shape" fill="#ECF5FF" points="23.7222973 29.7967912 23.7222973 27.7219451 5.14702703 16.9451868 5.14702703 19.020033"></polygon>
                    <g transform="translate(34.054054, 25.615385)" fill="#ECF5FF" id="Shape">
                        <polygon points="0.0875675676 0.281769231 0.0875675676 2.35783516 18.6616216 13.1345934 18.6616216 11.0585275"></polygon>
                        <polygon points="0.0875675676 6.34163736 18.6616216 17.1183956 18.6616216 15.0423297 0.0875675676 4.26679121"></polygon>
                        <polygon points="0.0875675676 10.3242198 18.6616216 21.100978 18.6616216 19.0261319 0.0875675676 8.24937363"></polygon>
                        <polygon points="0.0875675676 20.3093407 18.6616216 31.0873187 18.6616216 29.0124725 0.0875675676 18.2344945"></polygon>
                        <polygon points="0.0875675676 24.2931429 18.6616216 35.0711209 18.6616216 32.9950549 0.0875675676 22.2182967"></polygon>
                        <polygon points="0.0875675676 28.2769451 18.6616216 39.0549231 18.6616216 36.9788571 0.0875675676 26.2020989"></polygon>
                        <polygon points="0.0875675676 38.2620659 18.6616216 49.040044 18.6616216 46.963978 0.0875675676 36.1872198"></polygon>
                        <polygon points="0.0875675676 42.2458681 18.6616216 53.0226264 18.6616216 50.9477802 0.0875675676 40.171022"></polygon>
                        <polygon points="0.0875675676 46.2284505 18.6616216 57.0064286 18.6616216 54.9315824 0.0875675676 44.1548242"></polygon>
                    </g>
                    <polygon id="Shape" fill="#ECF5FF" points="23.7222973 33.7805934 23.7222973 31.7057473 5.14702703 20.928989 5.14702703 23.0038352"></polygon>
                    <polygon id="Shape" fill="#ECF5FF" points="66.5525676 68.8382967 59.985 65.0277033 59.985 86.5885385 66.5525676 90.3979121"></polygon>
                    <polygon id="Shape" fill="#ECF5FF" points="75.2339189 62.1965934 68.6663514 58.386 68.6663514 91.6372088 75.2339189 95.4478022"></polygon>
                    <polygon id="Shape" fill="#ECF5FF" points="83.9152703 55.5963626 77.3501351 51.7857692 77.3501351 96.6846593 83.9152703 100.495253"></polygon>
                    <path d="M16.1185135,48.3606264 L16.1185135,36.3006593 C15.9141892,36.1677033 15.7098649,36.0274286 15.5018919,35.9078901 C9.80148649,32.6071648 5.16648649,35.2565275 5.14702703,41.8262637 C5.12756757,48.396 9.73337838,56.3965385 15.435,59.6972637 C21.1341892,62.997989 25.7716216,60.3486264 25.7898649,53.7788901 C25.7898649,53.6813077 25.7801351,53.5812857 25.7777027,53.4837033 L16.1185135,48.3606264 Z" id="Shape" fill="#ECF5FF"></path>
                    <path d="M0.585,0.0768461538 L0.585,58.5799451 L0.934054054,58.7836484 L89.6606757,110.265692 L89.6606757,51.7613736 L89.3091892,51.5576703 L0.585,0.0768461538 Z M1.99216216,2.52372527 L88.2547297,52.5761868 L88.2547297,107.821253 L1.99216216,57.7675714 L1.99216216,2.52372527 Z" id="Shape" fill="#ECF5FF"></path>
                </g>
                <g id="Group" transform="translate(351.000000, 15.000000)">
                    <polygon id="Shape" fill="#EC6B8C" points="68.5155172 40.8936056 68.5155172 84.4750141 1.38310345 45.4952113 1.38310345 1.91380282"></polygon>
                    <polygon id="Shape" fill="#ECF5FF" points="18.562069 17.6457465 18.562069 16.0553521 4.3387931 7.79814085 4.3387931 9.38732394"></polygon>
                    <polygon id="Shape" fill="#ECF5FF" points="18.562069 20.6981408 18.562069 19.1077465 4.3387931 10.8493239 4.3387931 12.4397183"></polygon>
                    <polygon id="Shape" fill="#ECF5FF" points="18.562069 23.7505352 18.562069 22.1601408 4.3387931 13.9029296 4.3387931 15.4921127"></polygon>
                    <g transform="translate(26.344828, 20.591549)" fill="#ECF5FF" id="Shape">
                        <polygon points="0.197241379 0.170788732 0.197241379 1.7611831 14.4181034 10.0196056 14.4181034 8.42921127"></polygon>
                        <polygon points="0.197241379 4.81357746 14.4181034 13.072 14.4181034 11.4816056 0.197241379 3.2231831"></polygon>
                        <polygon points="0.197241379 7.86597183 14.4181034 16.1243944 14.4181034 14.534 0.197241379 6.27678873"></polygon>
                        <polygon points="0.197241379 15.5175493 14.4181034 23.7759718 14.4181034 22.1855775 0.197241379 13.9283662"></polygon>
                        <polygon points="0.197241379 18.5699437 14.4181034 26.8283662 14.4181034 25.2379718 0.197241379 16.9795493"></polygon>
                        <polygon points="0.197241379 21.622338 14.4181034 29.8807606 14.4181034 28.2903662 0.197241379 20.0331549"></polygon>
                        <polygon points="0.197241379 29.2739155 14.4181034 37.532338 14.4181034 35.9419437 0.197241379 27.6835211"></polygon>
                        <polygon points="0.197241379 32.3263099 14.4181034 40.5847324 14.4181034 38.994338 0.197241379 30.7359155"></polygon>
                        <polygon points="0.197241379 35.3787042 14.4181034 43.6371268 14.4181034 42.0467324 0.197241379 33.7895211"></polygon>
                    </g>
                    <polygon id="Shape" fill="#ECF5FF" points="18.562069 26.8029296 18.562069 25.2125352 4.3387931 16.9553239 4.3387931 18.544507"></polygon>
                    <polygon id="Shape" fill="#ECF5FF" points="51.3594828 53.6664225 46.3303448 50.7472676 46.3303448 67.2689577 51.3594828 70.1881127"></polygon>
                    <polygon id="Shape" fill="#ECF5FF" points="58.007069 48.5766761 52.977931 45.6575211 52.977931 71.1365352 58.007069 74.0569014"></polygon>
                    <polygon id="Shape" fill="#ECF5FF" points="64.6546552 43.5196338 59.6267241 40.6004789 59.6267241 75.0053239 64.6546552 77.9244789"></polygon>
                    <path d="M12.7412069,37.975662 L12.7412069,28.7336901 C12.5831034,28.6319437 12.4286207,28.5253521 12.2668966,28.4320845 C7.90517241,25.904169 4.35327586,27.9330423 4.34,32.9670704 C4.32672414,38.0010986 7.85206897,44.1313239 12.2162069,46.6604507 C16.5815517,49.1895775 20.1322414,47.159493 20.1443103,42.1254648 C20.1443103,42.0515775 20.1382759,41.9752676 20.1358621,41.900169 L12.7412069,37.975662 Z" id="Shape" fill="#ECF5FF"></path>
                    <path d="M0.844827586,0.97628169 L0.844827586,45.806507 L1.11517241,45.9627606 L69.055,85.4113239 L69.055,40.5823099 L68.787069,40.4260563 L0.844827586,0.97628169 Z M1.92258621,2.85132394 L67.9772414,41.2049014 L67.9772414,83.537493 L1.92258621,45.181493 L1.92258621,2.85132394 Z" id="Shape" fill="#ECF5FF"></path>
                </g>
                <g id="Group" transform="translate(80.000000, 9.000000)">
                    <polygon id="Shape" fill="#6EC7EF" points="9.15672441 95.9689634 9.15672441 186.242159 148.624945 105.499122 148.624945 15.2247134"></polygon>
                    <path d="M4.95507087,80.4712317 L142.407953,0.890646341 C143.328315,0.359170732 144.361449,0.418628049 145.17389,0.873658537 L145.175102,0.872445122 L145.205417,0.889432927 C145.207843,0.891859756 145.21148,0.893073171 145.213906,0.8955 L150.479008,3.95451829 L146.612031,17.8044329 L146.612031,108.876055 C146.612031,112.19353 144.84285,115.259829 141.970205,116.918567 L9.53626772,193.600305 L7.99748031,197.762317 L2.696,194.683884 L2.696,194.682671 C1.19965354,193.838134 0.126503937,192.247348 0.126503937,190.282829 L0.126503937,88.8377256 C0.127716535,85.3843476 1.96722835,82.1967073 4.95507087,80.4712317 Z" id="Shape" fill="#8CE2FF"></path>
                    <path d="M5.43283465,91.9161585 L5.43283465,193.361262 C5.43283465,197.252683 9.64055118,199.683152 13.0067244,197.739262 L147.275323,119.998213 C150.146756,118.339476 151.915937,115.273177 151.915937,111.955701 L151.915937,6.4007622 C151.915937,4.24331098 149.580472,2.8939939 147.711858,3.97271951 L10.2589764,83.5520915 C7.27234646,85.2763537 5.43283465,88.4652073 5.43283465,91.9161585 Z" id="Shape" fill="#ECF5FF"></path>
                    <polygon id="Shape" fill="url(#linearGradient-2)" points="9.15672441 95.9689634 9.15672441 186.242159 148.624945 105.499122 148.624945 15.2247134"></polygon>
                </g>
                <g id="Group" transform="translate(317.000000, 101.000000)">
                    <path d="M83.6275417,24.8418983 L77.3490417,28.8946441 L74.5505417,31.5073898 L9.99775,30.0149153 L8.210625,28.3552542 L0.29,26.6711864 L0.29,117.253288 C0.279125,117.612068 0.4495,117.974508 0.801125,118.179525 L2.07229167,118.921492 L40.8175,141.557559 C41.3975,141.896814 42.1140417,141.896814 42.69525,141.55878 L80.20675,119.684203 L85.0799583,116.846915 C85.7095,116.479593 86.0115833,115.829153 85.9898333,115.187254 L85.99225,115.186034 L85.99225,24.6027119 L83.6275417,24.8418983 Z" id="Shape" fill="url(#linearGradient-3)"></path>
                    <path d="M85.0811667,23.0687458 L85.0074583,23.0272542 L46.26225,0.391186441 C45.68225,0.0519322034 44.9669167,0.0519322034 44.3845,0.389966102 L8.76645833,21.1601356 L0.798708333,25.8010847 C0.116,26.2001356 0.113583333,27.1983729 0.798708333,27.5974237 L2.069875,28.3393898 L40.8150833,50.9754576 C41.3950833,51.3147119 42.111625,51.3147119 42.6928333,50.9754576 L80.2043333,29.1021017 L85.0775417,26.2648136 C86.29675,25.5545763 86.2979583,23.7789831 85.0811667,23.0687458 Z" id="Shape" fill="#ECF5FF"></path>
                </g>
                <g id="Group" transform="translate(100.000000, 173.000000)">
                    <path d="M7.60891167,73.4568923 L26.40347,85.4770462 L34.7787382,93.2226923 L354.735599,162.032908 L360.079448,157.113031 L383.787918,152.1178 L383.787918,163.031954 C383.814637,164.092985 383.308186,165.1686 382.258849,165.777508 L378.455,167.977354 L262.500773,235.101831 C260.762808,236.105738 258.621625,236.108169 256.882445,235.104262 L17.8520978,97.0013231 L3.2670347,88.5872154 C1.38332808,87.5006615 0.479731861,85.5694154 0.541671924,83.6649077 L0.535599369,83.6624769 L0.535599369,72.7483231 L7.60891167,73.4568923 Z" id="Shape" fill="#8CE2FF"></path>
                    <polygon id="Shape" fill="#6AA5EC" points="369.137271 164.496492 369.137271 171.589477 375.659196 167.821785 375.659196 160.7288"></polygon>
                    <polygon id="Shape" fill="#6AA5EC" points="360.24705 169.607185 360.24705 176.700169 366.76776 172.932477 366.76776 165.839492"></polygon>
                    <polygon id="Shape" fill="#6AA5EC" points="351.359259 174.719092 351.359259 181.812077 357.878754 178.044385 357.878754 170.9514"></polygon>
                    <polygon id="Shape" fill="#6AA5EC" points="268.335284 222.878708 268.335284 229.971692 288.623691 218.2092 288.623691 211.113785"></polygon>
                    <polygon id="Shape" fill="#6AA5EC" points="229.520726 210.515815 229.520726 217.607585 209.232319 205.845092 209.232319 198.752108"></polygon>
                    <polygon id="Shape" fill="url(#linearGradient-4)" points="355.601546 140.637277 136.614274 14.0975077 20.6600473 81.2207692 239.647319 207.761754"></polygon>
                    <path d="M3.2670347,77.6718462 L17.8520978,86.0859538 L256.882445,224.188892 C258.621625,225.1928 260.762808,225.190369 262.500773,224.186462 L378.455,157.061985 L382.258849,154.862138 C384.307729,153.677138 384.3053,150.716462 382.255205,149.533892 L358.409495,135.772092 L125.0497,0.947046154 C123.310521,-0.0580769231 121.169338,-0.0568615385 119.430158,0.948261538 L3.4759306,68.0739538 L3.26217666,68.1979231 C-0.381356467,70.3029692 -0.378927445,75.5704462 3.2670347,77.6718462 Z M20.6600473,81.2207692 L136.614274,14.0962923 L355.601546,140.636062 L239.647319,207.760538 L20.6600473,81.2207692 Z" id="Shape" fill="#ECF5FF"></path>
                </g>
                <g id="Group" transform="translate(0.000000, 144.000000)">
                    <path d="M125.879565,37.4751692 L116.409963,43.5375077 L112.190065,47.4461846 L14.8473611,45.2135231 L12.1545833,42.7304923 L0.208111111,40.2122154 L0.208111111,199.986677 C0.194768519,200.523877 0.450703704,201.067154 0.979555556,201.372215 L2.89603704,202.483077 L61.322037,236.348554 C62.1977963,236.856585 63.2773333,236.856585 64.1530926,236.348554 L120.718407,203.624323 L128.066537,199.377769 C129.016287,198.829631 129.471148,197.854892 129.440824,196.895954 L129.44325,196.893523 L129.44325,37.1178462 L125.879565,37.4751692 Z" id="Shape" fill="url(#linearGradient-5)"></path>
                    <path d="M128.070176,34.8219846 L127.962222,34.7587846 L69.5350093,0.893307692 C68.660463,0.386492308 67.5809259,0.386492308 66.7039537,0.893307692 L12.9963796,31.9646154 L0.981981481,38.9068923 C-0.051462963,39.5036462 -0.0526759259,40.9973538 0.980768519,41.5953231 L2.89725,42.7049692 L61.32325,76.5704462 C62.1990093,77.0784769 63.2785463,77.0784769 64.1543056,76.5704462 L120.71962,43.8462154 L128.06775,39.6008769 C129.905389,38.5410615 129.906602,35.8842308 128.070176,34.8219846 Z" id="Shape" fill="#ECF5FF"></path>
                </g>
                <g id="Group" transform="translate(369.000000, 169.000000)">
                    <path d="M83.3851667,25.3064941 L77.1066667,29.3307647 L74.3081667,31.9263647 L9.75416667,30.4431647 L7.96704167,28.7951647 L0.0452083333,27.1229294 L0.0452083333,78.5102353 C0.0355416667,78.8664941 0.207125,79.2251765 0.556333333,79.4275412 L1.82870833,80.1655059 L40.5739167,102.642529 C41.1539167,102.978188 41.86925,102.978188 42.4516667,102.642529 L79.9631667,80.9216471 L84.8351667,78.1055059 C85.4647083,77.7395529 85.7667917,77.0948941 85.7474583,76.4575059 L85.7486667,76.4550824 L85.7486667,25.0714118 L83.3851667,25.3064941 Z" id="Shape" fill="url(#linearGradient-6)"></path>
                    <path d="M84.8375833,23.5458 L84.7650833,23.5033882 L46.019875,1.02636471 C45.439875,0.689494118 44.7233333,0.689494118 44.142125,1.02636471 L8.52529167,21.6506 L0.557541667,26.2589412 C-0.127583333,26.6539765 -0.127583333,27.6464118 0.555125,28.0426588 L1.8275,28.7806235 L40.5727083,51.2576471 C41.1527083,51.5933059 41.8680417,51.5933059 42.4504583,51.2576471 L79.9619583,29.5391882 L84.8339583,26.7206235 C86.054375,26.0141647 86.0555833,24.2510471 84.8375833,23.5458 Z" id="Shape" fill="#ECF5FF"></path>
                </g>
                <g id="Group" transform="translate(9.000000, 397.000000)">
                    <path d="M45.3393333,13.7096286 L41.9938974,15.8891143 L40.5031538,17.2946 L6.11241026,16.4911143 L5.16035897,15.5991714 L0.94,14.6924857 L0.94,28.6085143 C0.935179487,28.7989429 1.0255641,28.9942857 1.21235897,29.1060857 L1.88964103,29.5041429 L22.5310769,41.6768286 C22.8395897,41.8598857 23.2216154,41.8598857 23.5313333,41.6768286 L43.5159744,29.9157143 L46.1118205,28.3898286 C46.4468462,28.1920286 46.6083333,27.8418857 46.5962821,27.4954286 L46.5974872,27.4954286 L46.5974872,13.5794 L45.3393333,13.7096286 Z" id="Shape" fill="url(#linearGradient-7)"></path>
                    <path d="M46.1130256,12.7562571 L46.0744615,12.7329143 L25.4330256,0.560228571 C25.1233077,0.379628571 24.7424872,0.379628571 24.4327692,0.560228571 L5.45802564,11.7291714 L1.2135641,14.2256286 C0.848410256,14.4394 0.848410256,14.9750571 1.2135641,15.1925143 L1.89084615,15.5905714 L22.5322821,27.7632571 C22.8407949,27.9438571 23.2228205,27.9438571 23.5325385,27.7632571 L43.5171795,15.9996857 L46.1130256,14.4738 C46.7613846,14.0941714 46.7613846,13.1383429 46.1130256,12.7562571 Z" id="Shape" fill="#ECF5FF"></path>
                </g>
                <g id="Group" transform="translate(251.000000, 171.000000)">
                    <g transform="translate(44.714286, 0.000000)" id="Shape">
                        <path d="M71.6033571,39.1481143 L4.71564286,0.297066667 C4.26878571,0.0374095238 3.76607143,0.0666666667 3.37021429,0.288533333 L3.37021429,0.287314286 L3.35564286,0.295847619 C3.35442857,0.297066667 3.35321429,0.298285714 3.35078571,0.298285714 L0.789857143,1.79161905 L2.672,8.55245714 L2.672,53.0123429 C2.672,54.6324571 3.53171429,56.1282286 4.93057143,56.9388952 L69.3739286,94.3746286 L70.1231429,96.408 L72.7010714,94.9049143 L72.7010714,94.9024762 C73.4296429,94.4904381 73.9517857,93.7139048 73.9517857,92.7545143 L73.9517857,43.2307048 C73.953,41.5472 73.0556429,39.9904762 71.6033571,39.1481143 Z" fill="#8CE2FF"></path>
                        <path d="M71.3714286,44.7362286 L71.3714286,94.2624762 C71.3714286,96.1605333 69.3229286,97.3454476 67.6848571,96.3982476 L2.349,58.444419 C0.951357143,57.6349714 0.0904285714,56.137981 0.0904285714,54.5190857 L0.0904285714,2.98750476 C0.0904285714,1.93302857 1.22578571,1.27474286 2.1365,1.80259048 L69.0242143,40.652419 C70.4752857,41.494781 71.3714286,43.0502857 71.3714286,44.7362286 Z" fill="#494DA5"></path>
                        <polygon fill="url(#linearGradient-8)" points="69.5585 46.7147429 69.5585 90.7845333 1.69085714 51.3654095 1.69085714 7.2944"></polygon>
                    </g>
                    <path d="M1.15721429,80.7871238 L41.1072143,57.4777143 C41.9705714,56.9766857 43.3803571,56.9766857 44.2473571,57.4777143 L114.237571,98.045181 C115.103357,98.5474286 115.108214,99.3702857 114.2485,99.8700952 L74.2972857,123.179505 C73.4339286,123.681752 72.0253571,123.681752 71.1571429,123.179505 L1.16814286,82.6120381 C0.299928571,82.1097905 0.296285714,81.2893714 1.15721429,80.7871238 Z" id="Shape" fill="#ECF5FF"></path>
                    <path d="M74.2972857,123.179505 L114.2485,99.8700952 C114.675929,99.6214095 114.889643,99.2934857 114.890857,98.9655619 L114.887214,102.187505 C114.886,102.516648 114.671071,102.843352 114.244857,103.094476 L74.2936429,126.401448 L74.2972857,123.179505 Z" id="Shape" fill="#D8D2D6"></path>
                    <path d="M0.513642857,81.6940952 C0.513642857,82.0268952 0.733428571,82.3609143 1.16814286,82.6120381 L71.1571429,123.179505 C72.0253571,123.681752 73.4339286,123.681752 74.2972857,123.179505 L74.2936429,126.401448 C73.4315,126.903695 72.0217143,126.903695 71.1547143,126.401448 L1.16328571,85.836419 C0.728571429,85.5828571 0.51,85.2500571 0.51,84.9160381 L0.513642857,81.6940952 Z" id="Shape" fill="#C9C4CC"></path>
                    <path d="M52.5215,70.9506286 C52.8105,71.1188571 52.8117143,71.3919238 52.5263571,71.5589333 L49.5173571,73.3168 C49.2307857,73.4838095 48.7608571,73.4838095 48.4730714,73.3119238 L36.9859286,66.6303238 C36.6945,66.4608762 36.6945,66.1914667 36.9822857,66.0232381 L39.9876429,64.2702476 C40.2766429,64.1008 40.7441429,64.1008 41.0319286,64.2678095 L52.5215,70.9506286 Z" id="Shape" fill="#8CBEF1"></path>
                    <path d="M45.1483571,72.857219 C45.4373571,73.0242286 45.4397857,73.2972952 45.152,73.4655238 L42.1442143,75.2172952 C41.8588571,75.3855238 41.3865,75.3855238 41.0999286,75.2172952 L31.8883571,69.885181 C31.6017857,69.7157333 31.6017857,69.4426667 31.8859286,69.2756571 L34.8949286,67.5226667 C35.1815,67.3568762 35.6477857,67.3568762 35.938,67.5226667 L45.1483571,72.857219 Z" id="Shape" fill="#8CBEF1"></path>
                    <path d="M44.8909286,78.4087619 C45.1799286,78.5757714 45.1811429,78.847619 44.897,79.0170667 L41.8867857,80.767619 C41.599,80.9370667 41.1302857,80.9370667 40.8425,80.767619 L27.2570714,72.8901333 C26.9680714,72.7206857 26.9644286,72.4512762 27.2534286,72.2818286 L30.26,70.5288381 C30.5477857,70.3606095 31.0140714,70.3606095 31.3030714,70.5288381 L44.8909286,78.4087619 Z" id="Shape" fill="#8CBEF1"></path>
                    <path d="M67.1038571,97.2406095 C67.3916429,97.407619 67.3916429,97.6770286 67.1062857,97.8440381 L64.0985,99.5994667 C63.8107143,99.7676952 63.3432143,99.7676952 63.0517857,99.5994667 L35.8602857,83.864 C35.5700714,83.6969905 35.5700714,83.4239238 35.8590714,83.2544762 L38.8668571,81.5039238 C39.1522143,81.3369143 39.6197143,81.3369143 39.9111429,81.5039238 L67.1038571,97.2406095 Z" id="Shape" fill="#8CBEF1"></path>
                    <path d="M108.235357,96.8748952 C108.523143,97.0419048 108.524357,97.3137524 108.235357,97.4832 L105.23,99.2361905 C104.939786,99.4032 104.474714,99.4032 104.186929,99.2361905 L95.88,94.4160762 C95.591,94.2490667 95.591,93.9808762 95.8763571,93.8138667 L98.8853571,92.0596571 C99.1707143,91.8926476 99.6394286,91.8926476 99.9284286,92.0596571 L108.235357,96.8748952 Z" id="Shape" fill="#8CBEF1"></path>
                    <path d="M102.857286,100.009067 C103.146286,100.176076 103.1475,100.446705 102.8585,100.616152 L99.8531429,102.369143 C99.5629286,102.536152 99.0978571,102.536152 98.8088571,102.369143 L95.88,100.673448 C95.591,100.506438 95.591,100.23581 95.8763571,100.071238 L98.8853571,98.3145905 C99.1707143,98.150019 99.6394286,98.150019 99.9284286,98.3145905 L102.857286,100.009067 Z" id="Shape" fill="#8CBEF1"></path>
                    <path d="M98.3413571,97.3844571 C98.6291429,97.5514667 98.6303571,97.8220952 98.3425714,97.9915429 L95.3372143,99.7457524 C95.047,99.9127619 94.5819286,99.9127619 94.2917143,99.7457524 L91.3640714,98.047619 C91.0750714,97.8806095 91.0738571,97.612419 91.3604286,97.4454095 L94.3694286,95.6912 C94.6535714,95.5241905 95.1235,95.5241905 95.4137143,95.6912 L98.3413571,97.3844571 Z" id="Shape" fill="#8CBEF1"></path>
                    <path d="M93.8266429,94.7622857 C94.1144286,94.9268571 94.1168571,95.1974857 93.8266429,95.3669333 L90.8212857,97.1211429 C90.5310714,97.2881524 90.066,97.2881524 89.777,97.1211429 L86.8481429,95.4254476 C86.5615714,95.2584381 86.5603571,94.9878095 86.8445,94.8208 L89.8535,93.0665905 C90.1388571,92.899581 90.6087857,92.899581 90.8977857,93.0665905 L93.8266429,94.7622857 Z" id="Shape" fill="#8CBEF1"></path>
                    <path d="M89.3107143,92.1364571 C89.5972857,92.3010286 89.5997143,92.5740952 89.3119286,92.7435429 L86.3065714,94.4965333 C86.0163571,94.6635429 85.5500714,94.6635429 85.2622857,94.4965333 L82.3322143,92.8008381 C82.0432143,92.6338286 82.0432143,92.3632 82.3297857,92.1986286 L85.3375714,90.441981 C85.6229286,90.2749714 86.0916429,90.2749714 86.3818571,90.441981 L89.3107143,92.1364571 Z" id="Shape" fill="#8CBEF1"></path>
                    <path d="M84.7947857,89.5118476 C85.0825714,89.6788571 85.0837857,89.9494857 84.7947857,90.1189333 L81.7894286,91.8731429 C81.5004286,92.0401524 81.0341429,92.0377143 80.7451429,91.8731429 L77.8175,90.1750095 C77.5285,90.0104381 77.5285,89.7398095 77.8138571,89.5728 L80.8216429,87.8185905 C81.107,87.651581 81.5757143,87.651581 81.8659286,87.8185905 L84.7947857,89.5118476 Z" id="Shape" fill="#8CBEF1"></path>
                    <path d="M80.2776429,86.8872381 C80.5654286,87.0542476 80.5678571,87.3248762 80.2788571,87.4943238 L77.2735,89.2485333 C76.9832857,89.4155429 76.5182143,89.4155429 76.2304286,89.2485333 L73.3003571,87.5528381 C73.0113571,87.3858286 73.0113571,87.1152 73.2967143,86.9481905 L76.3057143,85.193981 C76.5898571,85.0269714 77.0597857,85.0269714 77.3487857,85.193981 L80.2776429,86.8872381 Z" id="Shape" fill="#8CBEF1"></path>
                    <path d="M75.7641429,84.2614095 C76.0495,84.4308571 76.0519286,84.6990476 75.7641429,84.8709333 L72.7575714,86.6239238 C72.4685714,86.7909333 72.0022857,86.7909333 71.7145,86.6239238 L68.7856429,84.9282286 C68.4966429,84.761219 68.4954286,84.4905905 68.7832143,84.326019 L71.791,82.5693714 C72.0763571,82.4048 72.5450714,82.4048 72.8340714,82.5693714 L75.7641429,84.2614095 Z" id="Shape" fill="#8CBEF1"></path>
                    <path d="M71.247,81.6392381 C71.5347857,81.8062476 71.536,82.0768762 71.247,82.2463238 L68.2428571,83.9993143 C67.9514286,84.1663238 67.4863571,84.1663238 67.1973571,83.9993143 L64.2685,82.303619 C63.9807143,82.1366095 63.9807143,81.865981 64.2660714,81.7014095 L67.2750714,79.9447619 C67.558,79.7801905 68.0291429,79.7801905 68.3181429,79.9447619 L71.247,81.6392381 Z" id="Shape" fill="#8CBEF1"></path>
                    <path d="M66.7322857,79.0146286 C67.0188571,79.1816381 67.0212857,79.4522667 66.7322857,79.6217143 L63.7269286,81.3747048 C63.4367143,81.5441524 62.9704286,81.5441524 62.6814286,81.3747048 L59.7525714,79.6790095 C59.4635714,79.5144381 59.4635714,79.2438095 59.7501429,79.0768 L62.7579286,77.3225905 C63.0432857,77.155581 63.512,77.155581 63.8022143,77.3225905 L66.7322857,79.0146286 Z" id="Shape" fill="#8CBEF1"></path>
                    <path d="M62.2151429,76.3912381 C62.5029286,76.5558095 62.5041429,76.8264381 62.2151429,76.9958857 L59.2097857,78.7500952 C58.9207857,78.9171048 58.4545,78.9171048 58.1667143,78.7500952 L55.2378571,77.0544 C54.9476429,76.8873905 54.9476429,76.6167619 55.233,76.4497524 L58.242,74.6955429 C58.5273571,74.5285333 58.9960714,74.5285333 59.2862857,74.6955429 L62.2151429,76.3912381 Z" id="Shape" fill="#8CBEF1"></path>
                    <path d="M57.6992143,73.7666286 C57.987,73.9312 57.9894286,74.2042667 57.7016429,74.3737143 L54.6950714,76.1267048 C54.4048571,76.2937143 53.9397857,76.2937143 53.6507857,76.1267048 L50.7219286,74.4310095 C50.4341429,74.264 50.4329286,73.9933714 50.7182857,73.8288 L53.7272857,72.0721524 C54.0114286,71.9051429 54.4825714,71.9051429 54.7715714,72.0721524 L57.6992143,73.7666286 Z" id="Shape" fill="#8CBEF1"></path>
                    <path d="M54.0952143,65.7062857 C54.383,65.8732952 54.3842143,66.1451429 54.0952143,66.3145905 L51.0910714,68.067581 C50.8008571,68.2358095 50.3345714,68.2345905 50.0455714,68.067581 L47.1179286,66.3718857 C46.8301429,66.2048762 46.8289286,65.9330286 47.1155,65.7672381 L50.1245,64.0118095 C50.4086429,63.846019 50.8773571,63.846019 51.1675714,64.0118095 L54.0952143,65.7062857 Z" id="Shape" fill="#8CBEF1"></path>
                    <path d="M48.8555714,62.7574095 C49.1433571,62.9232 49.1433571,63.1962667 48.8567857,63.3657143 L45.8514286,65.1187048 C45.56,65.2857143 45.0949286,65.2844952 44.8059286,65.1187048 L41.8770714,63.4230095 C41.5880714,63.256 41.5868571,62.9841524 41.8746429,62.8183619 L44.8824286,61.0629333 C45.1677857,60.8971429 45.6377143,60.8971429 45.9267143,61.0629333 L48.8555714,62.7574095 Z" id="Shape" fill="#8CBEF1"></path>
                    <path d="M86.4146429,96.790781 C86.7012143,96.9577905 86.7036429,97.228419 86.4158571,97.3978667 L83.4105,99.1520762 C83.1202857,99.3190857 82.6527857,99.3190857 82.365,99.1520762 L79.4361429,97.4539429 C79.1471429,97.2869333 79.1471429,97.0187429 79.4337143,96.8517333 L82.4415,95.0975238 C82.7268571,94.9305143 83.1955714,94.9305143 83.4857857,95.0975238 L86.4146429,96.790781 Z" id="Shape" fill="#8CBEF1"></path>
                    <path d="M81.8975,94.1673905 C82.1852857,94.3319619 82.1865,94.6038095 81.8987143,94.7732571 L78.8933571,96.5262476 C78.6031429,96.6932571 78.1368571,96.6932571 77.8490714,96.5262476 L74.9202143,94.8305524 C74.6312143,94.6635429 74.6312143,94.3929143 74.9177857,94.2283429 L77.9267857,92.4716952 C78.2109286,92.3046857 78.6796429,92.3046857 78.9698571,92.4716952 L81.8975,94.1673905 Z" id="Shape" fill="#8CBEF1"></path>
                    <path d="M77.384,91.542781 C77.6705714,91.7073524 77.673,91.980419 77.384,92.1498667 L74.3786429,93.9028571 C74.0884286,94.0698667 73.6233571,94.0698667 73.3331429,93.9028571 L70.4042857,92.2071619 C70.1165,92.0401524 70.1165,91.7695238 70.4018571,91.6049524 L73.4096429,89.8483048 C73.695,89.6837333 74.1649286,89.6837333 74.4551429,89.8483048 L77.384,91.542781 Z" id="Shape" fill="#8CBEF1"></path>
                    <path d="M72.8668571,88.9181714 C73.1546429,89.085181 73.1558571,89.3558095 72.8680714,89.5252571 L69.8615,91.2782476 C69.5725,91.4476952 69.1062143,91.4452571 68.8184286,91.2782476 L65.8895714,89.5825524 C65.6005714,89.417981 65.6005714,89.1449143 65.8847143,88.9803429 L68.8937143,87.2261333 C69.1790714,87.0591238 69.6477857,87.0591238 69.9392143,87.2261333 L72.8668571,88.9181714 Z" id="Shape" fill="#8CBEF1"></path>
                    <path d="M68.3497143,86.2923429 C68.6387143,86.4593524 68.6399286,86.729981 68.3521429,86.8994286 L65.3455714,88.6536381 C65.0553571,88.8206476 64.5902857,88.8206476 64.3012857,88.6536381 L61.3736429,86.9579429 C61.0846429,86.7909333 61.0834286,86.5203048 61.37,86.3532952 L64.3777857,84.5990857 C64.6619286,84.4320762 65.1330714,84.4320762 65.4220714,84.5990857 L68.3497143,86.2923429 Z" id="Shape" fill="#8CBEF1"></path>
                    <path d="M63.8337857,83.6701714 C64.1227857,83.837181 64.124,84.1053714 63.835,84.2772571 L60.8296429,86.0302476 C60.5394286,86.1972571 60.0743571,86.1972571 59.7853571,86.0302476 L56.8565,84.3345524 C56.5687143,84.1675429 56.5675,83.8969143 56.8528571,83.7323429 L59.8618571,81.9756952 C60.1472143,81.8086857 60.6159286,81.8086857 60.9049286,81.9756952 L63.8337857,83.6701714 Z" id="Shape" fill="#8CBEF1"></path>
                    <path d="M59.3202857,81.0455619 C59.6056429,81.2125714 59.6080714,81.4832 59.3202857,81.6526476 L56.3149286,83.4056381 C56.0247143,83.5750857 55.5584286,83.5726476 55.2706429,83.4056381 L52.3405714,81.7099429 C52.0527857,81.5429333 52.0515714,81.2747429 52.3393571,81.1077333 L55.3471429,79.3510857 C55.6325,79.1865143 56.1012143,79.1865143 56.3914286,79.3510857 L59.3202857,81.0455619 Z" id="Shape" fill="#8CBEF1"></path>
                    <path d="M54.8031429,78.4197333 C55.0909286,78.5867429 55.0933571,78.8573714 54.8031429,79.026819 L51.799,80.7810286 C51.5075714,80.9480381 51.0425,80.9480381 50.7535,80.7810286 L47.8246429,79.0828952 C47.5368571,78.9183238 47.5368571,78.6476952 47.8222143,78.4806857 L50.8312143,76.7264762 C51.1153571,76.5594667 51.5852857,76.5594667 51.8742857,76.7264762 L54.8031429,78.4197333 Z" id="Shape" fill="#8CBEF1"></path>
                    <path d="M81.5902857,99.632381 C81.8792857,99.7981714 81.8805,100.0688 81.5915,100.238248 L78.5861429,101.992457 C78.2959286,102.159467 77.8308571,102.159467 77.5418571,101.992457 L74.613,100.296762 C74.3252143,100.129752 74.3252143,99.8579048 74.6105714,99.6908952 L77.6195714,97.9366857 C77.9037143,97.7696762 78.3736429,97.7696762 78.6626429,97.9366857 L81.5902857,99.632381 Z" id="Shape" fill="#8CBEF1"></path>
                    <path d="M77.0755714,97.0065524 C77.3645714,97.1711238 77.367,97.4454095 77.078,97.6148571 L74.0714286,99.3678476 C73.7824286,99.5348571 73.3173571,99.5348571 73.0271429,99.3678476 L70.0982857,97.6721524 C69.8092857,97.5051429 69.8092857,97.2332952 70.0946429,97.0687238 L73.1024286,95.3120762 C73.3877857,95.1450667 73.8577143,95.1450667 74.1479286,95.3120762 L77.0755714,97.0065524 Z" id="Shape" fill="#8CBEF1"></path>
                    <path d="M76.3227143,102.848229 C76.6092857,103.015238 76.6117143,103.287086 76.3239286,103.456533 L73.3185714,105.210743 C73.0283571,105.377752 72.5620714,105.377752 72.2742857,105.210743 L69.3454286,103.515048 C69.0552143,103.348038 69.0552143,103.07619 69.3405714,102.911619 L72.3495714,101.154971 C72.6349286,100.987962 73.1036429,100.987962 73.3938571,101.154971 L76.3227143,102.848229 Z" id="Shape" fill="#8CBEF1"></path>
                    <path d="M81.3170714,105.845867 C81.6036429,106.010438 81.6060714,106.284724 81.3182857,106.454171 L78.3129286,108.207162 C78.0215,108.37661 77.5552143,108.374171 77.2662143,108.207162 L74.3373571,106.511467 C74.0495714,106.344457 74.0495714,106.07261 74.3349286,105.908038 L77.3439286,104.15139 C77.6280714,103.986819 78.0992143,103.986819 78.3882143,104.15139 L81.3170714,105.845867 Z" id="Shape" fill="#8CBEF1"></path>
                    <path d="M86.4146429,108.88739 C86.7012143,109.055619 86.7036429,109.326248 86.4158571,109.495695 L83.4105,111.248686 C83.1202857,111.415695 82.6527857,111.415695 82.365,111.248686 L79.4361429,109.55299 C79.1471429,109.385981 79.1471429,109.114133 79.4337143,108.949562 L82.4415,107.192914 C82.7268571,107.028343 83.1955714,107.028343 83.4857857,107.192914 L86.4146429,108.88739 Z" id="Shape" fill="#8CBEF1"></path>
                    <path d="M71.7011429,100.13341 C71.9889286,100.297981 71.9913571,100.56861 71.7011429,100.740495 L68.697,102.493486 C68.4067857,102.660495 67.9405,102.660495 67.6515,102.493486 L64.7226429,100.79779 C64.4348571,100.630781 64.4348571,100.360152 64.7202143,100.193143 L67.7292143,98.4389333 C68.0133571,98.2719238 68.4832857,98.2719238 68.7722857,98.4389333 L71.7011429,100.13341 Z" id="Shape" fill="#8CBEF1"></path>
                    <path d="M72.5608571,94.3819429 C72.8474286,94.5489524 72.8486429,94.8208 72.5608571,94.9902476 L69.5542857,96.7444571 C69.2652857,96.9114667 68.799,96.9090286 68.5124286,96.7444571 L65.5835714,95.0463238 C65.2945714,94.8793143 65.2933571,94.6074667 65.5787143,94.4428952 L68.5877143,92.6862476 C68.8730714,92.5216762 69.3417857,92.5216762 69.6307857,92.6862476 L72.5608571,94.3819429 Z" id="Shape" fill="#8CBEF1"></path>
                    <path d="M68.0437143,91.7573333 C68.3315,91.9243429 68.3327143,92.1961905 68.0449286,92.3656381 L65.0395714,94.1198476 C64.7481429,94.2868571 64.2842857,94.2868571 63.9952857,94.1198476 L61.0652143,92.4241524 C60.7774286,92.2571429 60.7762143,91.9852952 61.0627857,91.8182857 L64.0717857,90.0640762 C64.3559286,89.8970667 64.8270714,89.8970667 65.1148571,90.0640762 L68.0437143,91.7573333 Z" id="Shape" fill="#8CBEF1"></path>
                    <path d="M63.5277857,89.1339429 C63.8155714,89.2985143 63.818,89.5703619 63.5277857,89.7422476 L60.5236429,91.4952381 C60.2334286,91.6622476 59.7671429,91.6622476 59.4781429,91.4952381 L56.5492857,89.7995429 C56.2615,89.6325333 56.2602857,89.3606857 56.5468571,89.1961143 L59.5558571,87.4394667 C59.84,87.2748952 60.3087143,87.2748952 60.5989286,87.4394667 L63.5277857,89.1339429 Z" id="Shape" fill="#8CBEF1"></path>
                    <path d="M59.0118571,86.5093333 C59.2996429,86.6763429 59.3020714,86.9481905 59.0130714,87.1176381 L56.0077143,88.8706286 C55.7187143,89.0376381 55.2524286,89.0376381 54.9634286,88.8706286 L52.0345714,87.1749333 C51.7455714,87.0079238 51.7455714,86.7360762 52.0321429,86.5715048 L55.0411429,84.8148571 C55.3252857,84.6502857 55.794,84.6502857 56.0854286,84.8148571 L59.0118571,86.5093333 Z" id="Shape" fill="#8CBEF1"></path>
                    <path d="M54.4971429,83.8847238 C54.7849286,84.0517333 54.7873571,84.323581 54.4971429,84.4930286 L51.4917857,86.246019 C51.2015714,86.4154667 50.7365,86.4130286 50.4475,86.246019 L47.5186429,84.5503238 C47.2308571,84.3857524 47.2308571,84.1114667 47.515,83.9468952 L50.5227857,82.1926857 C50.8081429,82.0256762 51.2780714,82.0256762 51.5670714,82.1926857 L54.4971429,83.8847238 Z" id="Shape" fill="#8CBEF1"></path>
                    <path d="M49.98,81.2613333 C50.269,81.4259048 50.269,81.6977524 49.9824286,81.8672 L46.9758571,83.6214095 C46.6856429,83.788419 46.2205714,83.788419 45.9327857,83.6214095 L43.0027143,81.9257143 C42.7137143,81.7587048 42.7125,81.4868571 42.9990714,81.3198476 L46.0080714,79.5656381 C46.2922143,79.3986286 46.7621429,79.3986286 47.0523571,79.5656381 L49.98,81.2613333 Z" id="Shape" fill="#8CBEF1"></path>
                    <path d="M38.0022857,80.3482667 C38.2888571,80.5152762 38.2912857,80.7859048 38.0022857,80.9553524 L34.9969286,82.7095619 C34.7067143,82.8765714 34.2404286,82.8765714 33.9514286,82.7095619 L31.0225714,81.0114286 C30.7347857,80.844419 30.7335714,80.5762286 31.0201429,80.408 L34.0291429,78.6550095 C34.3132857,78.488 34.782,78.488 35.0722143,78.6550095 L38.0022857,80.3482667 Z" id="Shape" fill="#8CBEF1"></path>
                    <path d="M33.4851429,77.7260952 C33.7717143,77.8906667 33.7741429,78.1612952 33.4851429,78.3307429 L30.4797857,80.0849524 C30.1907857,80.2519619 29.7245,80.2519619 29.4367143,80.0849524 L26.5078571,78.3892571 C26.2176429,78.2222476 26.2176429,77.951619 26.5042143,77.7858286 L29.512,76.0304 C29.7973571,75.8633905 30.2660714,75.8633905 30.5575,76.0304 L33.4851429,77.7260952 Z" id="Shape" fill="#8CBEF1"></path>
                    <path d="M28.9692143,75.1014857 C29.257,75.2660571 29.2594286,75.5391238 28.9692143,75.7085714 L25.9638571,77.4615619 C25.6736429,77.6285714 25.2085714,77.6285714 24.9195714,77.4615619 L21.9907143,75.7658667 C21.7029286,75.5988571 21.7029286,75.3282286 21.9870714,75.1624381 L24.9960714,73.4070095 C25.2802143,73.241219 25.7501429,73.241219 26.0391429,73.4070095 L28.9692143,75.1014857 Z" id="Shape" fill="#8CBEF1"></path>
                    <path d="M50.1730714,75.7305143 C50.4608571,75.8975238 50.4632857,76.1693714 50.1742857,76.338819 L47.1689286,78.0930286 C46.8787143,78.2600381 46.4136429,78.2600381 46.1246429,78.0930286 L43.1957857,76.3973333 C42.9067857,76.2291048 42.9055714,75.9584762 43.1921429,75.7914667 L46.2011429,74.0372571 C46.4852857,73.8702476 46.9552143,73.8702476 47.2442143,74.0372571 L50.1730714,75.7305143 Z" id="Shape" fill="#8CBEF1"></path>
                    <path d="M97.6747143,90.7504 C97.9625,90.9174095 97.9637143,91.1892571 97.6759286,91.3587048 L94.6705714,93.1116952 C94.3791429,93.2787048 93.9140714,93.2787048 93.6262857,93.1116952 L85.3205714,88.291581 C85.0303571,88.1245714 85.0303571,87.856381 85.3157143,87.6893714 L88.3259286,85.9327238 C88.6100714,85.7681524 89.0787857,85.7681524 89.369,85.9327238 L97.6747143,90.7504 Z" id="Shape" fill="#8CBEF1"></path>
                    <path d="M87.1165,84.6271238 C87.4030714,84.7916952 87.4042857,85.0635429 87.1165,85.2329905 L84.1111429,86.985981 C83.8209286,87.1529905 83.3558571,87.1529905 83.0668571,86.985981 L74.7599286,82.1658667 C74.4721429,82.0012952 74.4709286,81.7306667 74.7562857,81.5636571 L77.7640714,79.8094476 C78.0494286,79.6424381 78.5205714,79.6424381 78.8095714,79.8094476 L87.1165,84.6271238 Z" id="Shape" fill="#8CBEF1"></path>
                    <path d="M76.5558571,78.5026286 C76.8436429,78.6672 76.8460714,78.9402667 76.5570714,79.1084952 L73.5517143,80.8614857 C73.2627143,81.0284952 72.7952143,81.0284952 72.5062143,80.8614857 L64.2005,76.0413714 C63.9115,75.8768 63.9115,75.6061714 64.1980714,75.4391619 L67.2058571,73.6849524 C67.4912143,73.5179429 67.9611429,73.5179429 68.2513571,73.6849524 L76.5558571,78.5026286 Z" id="Shape" fill="#8CBEF1"></path>
                    <path d="M65.9976429,72.3769143 C66.2854286,72.5414857 66.2866429,72.8133333 65.9976429,72.982781 L62.9922857,74.7357714 C62.7020714,74.904 62.237,74.904 61.948,74.7357714 L53.6422857,69.9168762 C53.3532857,69.7498667 53.3532857,69.478019 53.6386429,69.3122286 L56.6476429,67.5568 C56.9317857,67.3910095 57.4005,67.3910095 57.6907143,67.5568 L65.9976429,72.3769143 Z" id="Shape" fill="#8CBEF1"></path>
                    <path d="M97.2181429,103.134705 C97.5071429,103.301714 97.5071429,103.571124 97.2217857,103.740571 L94.2152143,105.493562 C93.9262143,105.660571 93.4575,105.66301 93.1697143,105.496 L84.8627857,100.679543 C84.575,100.510095 84.5725714,100.239467 84.8603571,100.070019 L87.8693571,98.3194667 C88.1559286,98.147581 88.6234286,98.147581 88.9112143,98.3194667 L97.2181429,103.134705 Z" id="Shape" fill="#8CBEF1"></path>
                    <path d="M92.1497143,105.975086 C92.4362857,106.144533 92.4399286,106.415162 92.1545714,106.582171 L89.1856429,108.460724 C88.8990714,108.630171 88.3927143,108.500952 88.1037143,108.333943 L79.7943571,103.518705 C79.509,103.349257 79.5065714,103.07741 79.7931429,102.907962 L82.8009286,101.154971 C83.0875,100.987962 83.5537857,100.987962 83.844,101.154971 L92.1497143,105.975086 Z" id="Shape" fill="#8CBEF1"></path>
                    <path d="M58.2055714,99.6567619 C58.5067143,99.8310857 58.5079286,100.113905 58.2104286,100.288229 L48.0347143,106.22621 C47.7372143,106.400533 47.2490714,106.400533 46.9479286,106.22621 L26.0318571,94.0808381 C25.7331429,93.9065143 25.7307143,93.6212571 26.0294286,93.4469333 L36.2039286,87.5126095 C36.5014286,87.3382857 36.9907857,87.3382857 37.2919286,87.5126095 L58.2055714,99.6567619 Z" id="Shape" fill="#8CBEF1"></path>
                    <polygon id="Shape" fill="#ECF5FF" points="70.7940714 29.5212952 70.7940714 27.3733333 51.5925714 16.2214857 51.5925714 18.3682286"></polygon>
                    <polygon id="Shape" fill="#ECF5FF" points="70.7940714 33.6428952 70.7940714 31.4961524 51.5925714 20.3443048 51.5925714 22.4910476"></polygon>
                    <polygon id="Shape" fill="#ECF5FF" points="70.7940714 37.7657143 70.7940714 35.6177524 51.5925714 24.4659048 51.5925714 26.6126476"></polygon>
                    <polygon id="Shape" fill="#ECF5FF" points="107.719286 50.1939048 107.719286 48.0459429 88.5165714 36.8928762 88.5165714 39.0408381"></polygon>
                    <polygon id="Shape" fill="#ECF5FF" points="107.719286 54.3142857 107.719286 52.1687619 88.5165714 41.0156952 88.5165714 43.1636571"></polygon>
                    <polygon id="Shape" fill="#ECF5FF" points="107.719286 58.4371048 107.719286 56.2903619 88.5165714 45.1385143 88.5165714 47.2840381"></polygon>
                    <polygon id="Shape" fill="#ECF5FF" points="107.719286 67.7713524 107.719286 65.6233905 88.5165714 54.4715429 88.5165714 56.6195048"></polygon>
                    <polygon id="Shape" fill="#ECF5FF" points="107.719286 71.8929524 107.719286 69.7462095 88.5165714 58.5943619 88.5165714 60.7411048"></polygon>
                    <polygon id="Shape" fill="#ECF5FF" points="107.719286 76.0145524 107.719286 73.8690286 88.5165714 62.7159619 88.5165714 64.8627048"></polygon>
                    <path d="M59.211,45.2433524 L59.211,36.2370286 C59.0592143,36.1382857 58.9062143,36.0334476 58.7507857,35.9444571 C54.4983571,33.4807619 51.0400714,35.4592762 51.0267143,40.3635048 C51.0133571,45.2689524 54.4497857,51.2435048 58.7022143,53.708419 C62.9534286,56.1733333 66.4117143,54.194819 66.4262857,49.2893714 C66.4262857,49.2174476 66.4177857,49.1418667 66.4153571,49.0687238 L59.211,45.2433524 Z" id="Shape" fill="#ECF5FF"></path>
                </g>
                <path d="M12.5867012,68.6409431 C8.93751586,70.7227316 5.98778832,75.7657161 6.00003802,79.9063099 L6.13600968,129.374492 C6.14825937,133.515086 9.11636146,135.185597 12.7655468,133.105018 L54.4132988,109.359807 C58.0637091,107.279228 61.0122117,102.236244 60.999962,98.0944401 L60.8639903,48.6262582 C60.8517406,44.4844546 57.8836385,42.8139433 54.2344532,44.8957318 L12.5867012,68.6409431 Z" id="Shape" fill="#FFD479"></path>
                <path d="M106.921083,2.67286238 C106.914919,0.2794676 105.187891,-0.685143024 103.065162,0.517598293 L78.8325232,14.236102 C76.7085617,15.4388433 74.9926276,18.3520158 75.0000238,20.7454105 L75.0789173,49.3271376 C75.0850809,51.7205324 76.8121094,52.685143 78.936071,51.4824017 L103.167477,37.7626892 C105.291438,36.5599479 107.007372,33.6467754 106.999976,31.2533807 L106.921083,2.67286238 Z" id="Shape" fill="url(#linearGradient-9)"></path>
                <path d="M451.056903,92.9534267 C451.061744,91.2046978 452.302402,90.4998961 453.829923,91.3772777 L471.246332,101.403806 C472.772643,102.282394 474.004827,104.411282 473.999986,106.160011 L473.943097,127.047002 C473.937045,128.795731 472.696388,129.500532 471.171287,128.621944 L453.753668,118.596623 C452.227357,117.718034 450.995173,115.58794 451.000014,113.840418 L451.056903,92.9534267 Z" id="Shape" fill="#4AC5FC"></path>
                <ellipse id="Oval" fill="#2B3990" opacity="0.07" cx="342.5" cy="445" rx="29.5" ry="9"></ellipse>
                <ellipse id="Oval" fill="#2B3990" opacity="0.07" cx="263.5" cy="217" rx="29.5" ry="9"></ellipse>
                <ellipse id="Oval" fill="#2B3990" opacity="0.07" cx="190.5" cy="242" rx="29.5" ry="9"></ellipse>
                <polygon id="Shape" fill="#ECF5FF" points="175 91.831312 183 87 183 129.167478 175 134"></polygon>
                <polygon id="Shape" fill="#ECF5FF" points="187 84.8325222 195 80 195 122.168688 187 127"></polygon>
                <polygon id="Shape" fill="#ECF5FF" points="199 77.8325222 207 73 207 115.167478 199 120"></polygon>
                <polygon id="Shape" fill="#ECF5FF" points="211 70.8325222 219 66 219 108.168688 211 113"></polygon>
                <g id="Group" transform="translate(96.000000, 94.000000)" fill="#ECF5FF">
                    <polygon id="Shape" points="24.7755238 0.946 24.7755238 3.60311111 0.607904762 17.4056667 0.607904762 14.7473333"></polygon>
                    <polygon id="Shape" points="24.7755238 8.70588889 0.607904762 22.5084444 0.607904762 19.8501111 24.7755238 6.04755556"></polygon>
                    <polygon id="Shape" points="24.7755238 13.8074444 0.607904762 27.61 0.607904762 24.9516667 24.7755238 11.1503333"></polygon>
                    <polygon id="Shape" points="24.7755238 18.909 0.607904762 32.7115556 0.607904762 30.0532222 24.7755238 16.2506667"></polygon>
                </g>
                <g id="Group" transform="translate(96.000000, 121.000000)" fill="#ECF5FF">
                    <polygon id="Shape" points="24.7755238 0.614777778 24.7755238 3.27311111 0.607904762 17.0756667 0.607904762 14.4173333"></polygon>
                    <polygon id="Shape" points="24.7755238 8.37466667 0.607904762 22.1772222 0.607904762 19.5188889 24.7755238 5.71755556"></polygon>
                    <polygon id="Shape" points="24.7755238 13.4762222 0.607904762 27.2787778 0.607904762 24.6216667 24.7755238 10.8191111"></polygon>
                    <polygon id="Shape" points="24.7755238 18.5777778 0.607904762 32.3803333 0.607904762 29.7232222 24.7755238 15.9206667"></polygon>
                </g>
                <path d="M148.446371,110.23951 C139.333663,115.445234 131.969273,128.064873 132.000096,138.4263 C132.029687,148.787726 139.442162,152.966213 148.553637,147.76049 C157.666345,142.554766 165.029502,129.933907 164.999911,119.5737 C164.969087,109.212274 157.557846,105.033787 148.446371,110.23951 Z" id="Shape" fill="#ECF5FF"></path>
                <g id="Group" transform="translate(323.000000, 302.000000)" fill="#ECF5FF">
                    <path d="M35.8642791,48.2010577 L21.2546977,39.7493654 C19.7418605,38.8722115 17.8626047,38.8746346 16.3509767,39.7566346 L2.36055814,47.9139231 C1.43786047,48.4518462 0.887627907,49.4113846 0.888837209,50.4811731 C0.890046512,51.5509615 1.44390698,52.5092885 2.37023256,53.0447885 L16.872186,61.4346923 C17.7670698,61.9520192 18.7707907,62.2137115 19.7757209,62.2137115 C20.7854884,62.2137115 21.7952558,61.9495962 22.6949767,61.4262115 L35.8727442,53.7426346 C36.8692093,53.1623077 37.464186,52.1264423 37.4617674,50.9706346 C37.4593488,49.8148269 36.8619535,48.7801731 35.8642791,48.2010577 Z" id="Shape"></path>
                    <path d="M69.1092093,28.9073077 L54.4972093,20.4544038 C52.9843721,19.57725 51.1063256,19.5820962 49.595907,20.4628846 L35.6054884,28.6189615 C34.6815814,29.1556731 34.1313488,30.1164231 34.1337674,31.1862115 C34.136186,32.2584231 34.6876279,33.21675 35.6139535,33.75225 L50.115907,42.1397308 C51.012,42.6594808 52.0157209,42.91875 53.0194419,42.91875 C54.0292093,42.91875 55.0389767,42.6546346 55.939907,42.13125 L69.1164651,34.4476731 C70.1129302,33.8673462 70.7066977,32.8302692 70.7042791,31.6756731 C70.7054884,30.5198654 70.1093023,29.4852115 69.1092093,28.9073077 Z" id="Shape"></path>
                    <path d="M102.35414,9.61355769 L87.7433488,1.16065385 C86.2305116,0.2835 84.3524651,0.288346154 82.8408372,1.16671154 L68.8504186,9.32521154 C67.9277209,9.86192308 67.3774884,10.8226731 67.3774884,11.8924615 C67.379907,12.9646731 67.9337674,13.923 68.8588837,14.4585 L83.3608372,22.8459808 C84.2557209,23.3657308 85.2606512,23.625 86.2643721,23.625 C87.2741395,23.625 88.2851163,23.3608846 89.1848372,22.8375 L102.361395,15.1563462 C103.35907,14.5748077 103.951628,13.5365192 103.950419,12.3819231 C103.949209,11.2261154 103.351814,10.19025 102.35414,9.61355769 Z" id="Shape"></path>
                </g>
                <path d="M127.625797,222.475298 L120.291066,226.711913 L63.8288869,259.350211 C62.9547244,259.854484 61.8771557,259.854484 61.0029932,259.347787 L2.68231131,225.572452 L0.770534924,224.464507 C0.241436582,224.159034 -0.0128212018,223.618396 0.000497063129,223.082607 L0.000497063129,229.354494 C-0.0128212018,229.889071 0.242647334,230.429709 0.770534924,230.736394 L2.68231131,231.844338 L61.0029932,265.619674 C61.8771557,266.126371 62.9547244,266.126371 63.8288869,265.622098 L120.291066,232.9838 L127.625797,228.748397 C128.573816,228.200486 129.027847,227.230732 128.997578,226.273099 L129,226.271887 L129,220 L128.997578,220 C129.027847,220.957633 128.573816,221.928599 127.625797,222.475298 Z" id="Shape" fill="url(#linearGradient-10)"></path>
                <path d="M127.625797,298.477641 L120.291066,302.711692 L63.8288869,335.348916 C62.9547244,335.853171 61.8771557,335.853171 61.0029932,335.348916 L2.68231131,301.574692 L0.770534924,300.465572 C0.241436582,300.161322 -0.0128212018,299.621914 0.000497063129,299.08493 L0.000497063129,305.35661 C-0.0128212018,305.892382 0.242647334,306.434214 0.770534924,306.738465 L2.68231131,307.846373 L61.0029932,341.621808 C61.8771557,342.126064 62.9547244,342.126064 63.8288869,341.621808 L120.291066,308.98216 L127.625797,304.750534 C128.573816,304.20264 129.027847,303.230494 128.997578,302.274105 L129,302.27168 L129,296 L128.997578,296.001212 C129.027847,296.957601 128.573816,297.929748 127.625797,298.477641 Z" id="Shape" fill="url(#linearGradient-11)"></path>
                <g id="Group" transform="translate(86.000000, 251.000000)">
                    <path d="M191.295512,56.7332012 L176.895056,65.9151098 L170.477963,71.8317195 L22.4434074,68.4511463 L18.3477531,64.6907744 L0.181191358,60.873372 L0.181191358,142.3845 C0.160518519,143.196274 0.548438272,144.017756 1.35346296,144.48128 L4.26711728,146.164287 L93.1201975,197.451683 C94.4517716,198.219774 96.0922222,198.219774 97.4250123,197.451683 L183.44713,147.893402 L194.622623,141.461091 C196.066074,140.631116 196.758006,139.156817 196.71058,137.701933 L196.715444,137.699506 L196.715444,56.1895915 L191.295512,56.7332012 Z" id="Shape" fill="url(#linearGradient-12)"></path>
                    <path d="M194.627488,52.7119451 L194.463321,52.6160854 L105.607809,1.32990244 C104.276235,0.560597561 102.634568,0.560597561 101.301778,1.32747561 L19.625821,48.3836951 L1.35346296,58.8991463 C-0.21767284,59.8031402 -0.218888889,62.0637317 1.35103086,62.968939 L4.26468519,64.6519451 L93.1177654,115.938128 C94.4493395,116.707433 96.0897901,116.707433 97.4225802,115.940555 L183.444698,66.3798476 L194.620191,59.9511768 C197.415889,58.3446159 197.419537,54.3221463 194.627488,52.7119451 Z" id="Shape" fill="#ECF5FF"></path>
                </g>
                <path d="M280.912876,347.768025 L269.767806,354.205624 L183.979871,403.835164 C182.65071,404.605537 181.014725,404.603107 179.686776,403.832733 L91.0755848,352.475322 L88.1698625,350.792408 C87.3670293,350.324595 86.9801656,349.503187 87.0007822,348.690286 L87.0007822,355.278557 C86.9801656,356.091459 87.3670293,356.914082 88.1698625,357.379465 L91.0755848,359.064808 L179.686776,410.42222 C181.014725,411.192593 182.65071,411.192593 183.979871,410.42222 L269.767806,360.795111 L280.912876,354.355081 C282.352397,353.523953 283.042446,352.046391 282.995149,350.590702 L283,350.588272 L283,344 L282.995149,344.00243 C283.042446,345.459335 282.351185,346.936896 280.912876,347.768025 Z" id="Shape" fill="#ECF5FF"></path>
                <g id="Group" transform="translate(251.000000, 389.000000)">
                    <path d="M44.7825641,14.1248857 L41.4371282,16.3031429 L39.9475897,17.7098571 L5.55805128,16.9076 L4.606,16.0132 L0.384435897,15.1089714 L0.384435897,29.0225429 C0.379615385,29.2154286 0.47,29.4083143 0.658,29.5188857 L1.33528205,29.9194 L21.9767179,42.0920857 C22.2864359,42.2739143 22.6660513,42.2739143 22.9757692,42.0920857 L42.9616154,30.3297429 L45.5562564,28.8026286 C45.8912821,28.6048286 46.0515641,28.2559143 46.0407179,27.9094571 L46.0419231,27.9094571 L46.0419231,13.9958857 L44.7825641,14.1248857 Z" id="Shape" fill="url(#linearGradient-13)"></path>
                    <path d="M45.5574615,13.1702857 L45.5188974,13.1494 L24.8774615,0.976714286 C24.5665385,0.792428571 24.1881282,0.792428571 23.8784103,0.974257143 L4.90366667,12.1432 L0.659205128,14.6384286 C0.292846154,14.8534286 0.292846154,15.3915429 0.658,15.6053143 L1.33528205,16.0033714 L21.9767179,28.1760571 C22.2864359,28.3578857 22.6660513,28.3603429 22.9757692,28.1760571 L42.9616154,16.4137143 L45.5562564,14.8890571 C46.2058205,14.5082 46.2070256,13.5523714 45.5574615,13.1702857 Z" id="Shape" fill="#ECF5FF"></path>
                </g>
            </g>
        </g>
    </g>
</svg>