<?xml version="1.0" encoding="UTF-8" standalone="no"?>
<svg width="226px" height="205px" viewBox="0 0 226 205" version="1.1" xmlns="http://www.w3.org/2000/svg" xmlns:xlink="http://www.w3.org/1999/xlink">
    <!-- Generator: Sketch 50.2 (55047) - http://www.bohemiancoding.com/sketch -->
    <title>286986-P6XKTB-580</title>
    <desc>Created with Sketch.</desc>
    <defs>
        <path d="M215.207675,131.490927 L102.187416,197.234194 C98.1316982,199.592949 93.1418195,199.588501 89.0910441,197.221408 L2.13886488,146.418403 C-0.71633868,144.750652 -0.711945214,140.577386 2.14600426,138.915751 L118.012131,71.5208547 C121.504936,69.4889791 125.802844,69.4934265 129.292354,71.5319731 L215.217011,121.727362 C218.931687,123.898216 218.926744,129.327299 215.207675,131.490927 Z" id="path-1"></path>
        <filter x="-3.2%" y="-3.9%" width="106.4%" height="110.9%" filterUnits="objectBoundingBox" id="filter-2">
            <feOffset dx="0" dy="2" in="SourceAlpha" result="shadowOffsetOuter1"></feOffset>
            <feGaussianBlur stdDeviation="2" in="shadowOffsetOuter1" result="shadowBlurOuter1"></feGaussianBlur>
            <feColorMatrix values="0 0 0 0 0   0 0 0 0 0   0 0 0 0 0  0 0 0 0.5 0" type="matrix" in="shadowBlurOuter1"></feColorMatrix>
        </filter>
        <linearGradient x1="2.80213298e-05%" y1="49.9999513%" x2="99.9999159%" y2="49.9999513%" id="linearGradient-3">
            <stop stop-color="#FFB138" offset="0%"></stop>
            <stop stop-color="#F59670" offset="100%"></stop>
        </linearGradient>
        <linearGradient x1="100.0052%" y1="50.0042607%" x2="0.00226320903%" y2="50.0042607%" id="linearGradient-4">
            <stop stop-color="#6AA5EC" offset="0%"></stop>
            <stop stop-color="#6AA0EC" offset="31.83%"></stop>
            <stop stop-color="#6B93EC" offset="67.56%"></stop>
            <stop stop-color="#6C80EC" offset="100%"></stop>
        </linearGradient>
        <linearGradient x1="-0.000191087671%" y1="49.999733%" x2="99.9998089%" y2="49.999733%" id="linearGradient-5">
            <stop stop-color="#8CE2FF" offset="0%"></stop>
            <stop stop-color="#86D9FD" offset="30.82%"></stop>
            <stop stop-color="#77C0F6" offset="81.64%"></stop>
            <stop stop-color="#71B5F3" offset="100%"></stop>
        </linearGradient>
        <linearGradient x1="122.626508%" y1="-8.52853961%" x2="-10.1723943%" y2="74.2245392%" id="linearGradient-6">
            <stop stop-color="#8CE2FF" offset="0%"></stop>
            <stop stop-color="#86D9FD" offset="30.82%"></stop>
            <stop stop-color="#77C0F6" offset="81.64%"></stop>
            <stop stop-color="#71B5F3" offset="100%"></stop>
        </linearGradient>
        <linearGradient x1="50%" y1="0%" x2="50%" y2="100%" id="linearGradient-7">
            <stop stop-color="#B4EC51" offset="0%"></stop>
            <stop stop-color="#429321" offset="100%"></stop>
        </linearGradient>
        <linearGradient x1="50%" y1="0%" x2="50%" y2="100%" id="linearGradient-8">
            <stop stop-color="#000000" stop-opacity="0" offset="0%"></stop>
            <stop stop-color="#000000" offset="100%"></stop>
        </linearGradient>
        <linearGradient x1="0%" y1="0%" x2="101.999998%" y2="100.999999%" id="linearGradient-9">
            <stop stop-color="#3023AE" offset="0%"></stop>
            <stop stop-color="#C86DD7" offset="100%"></stop>
        </linearGradient>
        <linearGradient x1="127.885569%" y1="12.4945516%" x2="-14.8151243%" y2="66.4572992%" id="linearGradient-10">
            <stop stop-color="#8CE2FF" offset="0%"></stop>
            <stop stop-color="#86D9FD" offset="30.82%"></stop>
            <stop stop-color="#77C0F6" offset="81.64%"></stop>
            <stop stop-color="#71B5F3" offset="100%"></stop>
        </linearGradient>
    </defs>
    <g id="Page-1" stroke="none" stroke-width="1" fill="none" fill-rule="evenodd">
        <g id="Desktop-HD" transform="translate(-226.000000, -1175.000000)" fill-rule="nonzero">
            <g id="286986-P6XKTB-580" transform="translate(230.000000, 1175.000000)">
                <g id="Shape" opacity="0.07">
                    <use fill="black" fill-opacity="1" filter="url(#filter-2)" xlink:href="#path-1"></use>
                    <use fill="#2B3990" fill-rule="evenodd" xlink:href="#path-1"></use>
                </g>
                <g id="Group" transform="translate(0.000000, 47.000000)">
                    <path d="M212.353515,56.8617652 L130.06344,9.34050202 C126.567143,7.32197571 122.260877,7.31757085 118.761279,9.33004049 L9.03732663,72.4208259 L0.520537688,72.4208259 L0.520537688,79.7807935 C0.514484925,81.2305425 1.2281608,82.6835951 2.66321608,83.5122591 L89.7844975,133.831158 C93.843701,136.175093 98.8427337,136.180599 102.906339,133.842721 L216.146947,68.7279028 C217.901698,67.7180891 218.831073,65.990834 218.93342,64.2217328 L218.944425,64.2217328 L218.944425,56.8612146 L212.353515,56.8612146 L212.353515,56.8617652 Z" id="Shape" fill="#8CE2FF"></path>
                    <path d="M216.146397,61.441166 L102.906339,126.557636 C98.8427337,128.893862 93.8431508,128.888907 89.7844975,126.545522 L2.66321608,76.2260729 C-0.197540201,74.574251 -0.193138191,70.4419433 2.67036935,68.7956275 L118.761829,2.04440486 C122.261427,0.03248583 126.567693,0.036340081 130.06399,2.055417 L216.155751,51.7719514 C219.877651,53.9209717 219.872698,59.2993036 216.146397,61.441166 Z" id="Shape" fill="#ECF5FF"></path>
                    <polygon id="Shape" fill="url(#linearGradient-3)" points="211.922118 55.2908826 102.941555 117.80298 15.553402 67.3304615 124.530113 4.82442105"></polygon>
                    <path d="M47.1609347,93.6770202 C49.6282613,92.2421377 53.6434447,92.2421377 56.1283794,93.6770202 C58.6127638,95.1124534 58.6254196,97.4387692 56.1575427,98.8742024 C53.6896658,100.309636 49.6750327,100.309636 47.190098,98.8742024 C44.7057136,97.4387692 44.6930578,95.1124534 47.1609347,93.6770202 Z" id="Shape" fill="#8CBEF1"></path>
                    <path d="M47.8878166,96.1861377 C47.8872663,96.4317085 48.0138241,96.6519514 48.2256709,96.7758381 L50.8938392,98.3291012 C51.0693693,98.4315142 51.2674598,98.4827206 51.4644497,98.4827206 C51.6608894,98.4827206 51.8573291,98.4315142 52.032309,98.330753 L54.9205779,96.6618623 C55.1335251,96.5390769 55.2600829,96.3193846 55.2606332,96.0738138 C55.2611834,95.8282429 55.1346256,95.608 54.9227789,95.4852146 L52.2546106,93.9314008 C51.9041005,93.7271255 51.4677513,93.7265749 51.116691,93.9291984 L48.2278719,95.5980891 C48.0154749,95.7208745 47.8883668,95.9411174 47.8878166,96.1861377 Z M48.5398643,96.1866883 C48.5398643,96.1712713 48.5497688,96.1657652 48.5541709,96.1624615 L51.4424397,94.4946721 C51.5172739,94.4511741 51.6003618,94.4297004 51.6834497,94.4297004 C51.7676382,94.4297004 51.8523769,94.4517247 51.9266608,94.4952227 L54.5948291,96.0490364 C54.5992312,96.0512389 54.6085854,96.0572955 54.6085854,96.0732632 C54.6085854,96.0892308 54.5986809,96.0952874 54.5948291,96.0974899 L51.7060101,97.7663806 C51.556892,97.8522753 51.370907,97.8517247 51.2212387,97.7647287 L48.5536206,96.2120162 C48.5492186,96.2087126 48.5398643,96.2043077 48.5398643,96.1866883 Z" id="Shape" fill="url(#linearGradient-4)"></path>
                    <polygon id="Shape" fill="#6AA5EC" points="210.704412 64.5702672 186.69695 78.3756437 186.700802 85.6667854 210.704412 71.857004"></polygon>
                    <polygon id="Shape" fill="#6AA5EC" points="111.834716 121.428729 111.838568 128.717668 110.670935 129.389409 110.667083 122.099368"></polygon>
                    <polygon id="Shape" fill="#6AA5EC" points="133.254897 109.109992 133.258198 116.398931 132.091666 117.070672 132.087264 109.781182"></polygon>
                    <polygon id="Shape" fill="#6AA5EC" points="155.000827 96.6040486 155.004678 103.89464 153.837595 104.56583 153.833744 97.2757895"></polygon>
                    <g transform="translate(58.876884, 110.121457)" fill="#6AA5EC" id="Shape">
                        <polygon points="1.98145477 1.08965182 1.98145477 5.66354656 0.378572864 4.73522267 0.378572864 0.155271255"></polygon>
                        <polygon points="4.7976407 7.29279352 3.19475879 6.36391903 3.19475879 1.78451822 4.7976407 2.71834818"></polygon>
                        <polygon points="7.61437688 8.92148988 6.01149497 7.99316599 6.01149497 3.41431579 7.61437688 4.34704453"></polygon>
                        <polygon points="10.4311131 10.5507368 8.8276809 9.62241296 8.8276809 5.04301215 10.4311131 5.9762915"></polygon>
                        <polygon points="13.2478492 12.1799838 11.6444171 11.2511093 11.6444171 6.6717085 13.2478492 7.60553846"></polygon>
                        <polygon points="16.0640352 13.8092308 14.460603 12.8809069 14.460603 8.30150607 16.0640352 9.23423482"></polygon>
                        <polygon points="18.8807714 15.4379271 17.2778894 14.5090526 17.2778894 9.92965182 18.8807714 10.8634818"></polygon>
                        <polygon points="21.6980578 17.0677247 20.0951759 16.1388502 20.0951759 11.5594494 21.6980578 12.4927287"></polygon>
                        <polygon points="24.514794 18.6958704 22.9113618 17.7675466 22.9113618 13.1886964 24.514794 14.1219757"></polygon>
                        <polygon points="27.3309799 20.325668 25.728098 19.3967935 25.728098 14.8173927 27.3309799 15.7506721"></polygon>
                    </g>
                </g>
                <g id="Group" transform="translate(129.000000, 0.000000)">
                    <g id="Shape">
                        <g>
                            <path d="M3.95843939,14.9574862 L29.2002879,0.455337017 C29.9032879,0.0513370166 30.6926212,0.0970939227 31.3132121,0.441944751 L31.3143333,0.440828729 L31.336197,0.453662983 C31.339,0.455337017 31.341803,0.45701105 31.3446061,0.458127072 L35.3647121,2.78168508 L32.4103182,13.3035414 L32.4103182,78.7911602 C32.4103182,81.3128122 31.058697,83.6408343 28.8661667,84.9013812 L7.45774242,97.2005028 L6.28215152,100.363867 L2.23345455,98.0241271 L2.23345455,98.0235691 C1.09093939,97.3818564 0.271333333,96.1732044 0.271333333,94.6810829 L0.271333333,21.311558 C0.271333333,18.6900221 1.67677273,16.2676961 3.95843939,14.9574862 Z" fill="#8CE2FF"></path>
                            <path d="M4.32283333,23.6524144 L4.32283333,97.0213812 C4.32283333,99.9766077 7.53622727,101.823066 10.1077273,100.346011 L32.9165455,87.2422376 C35.110197,85.9822486 36.4612576,83.6531105 36.4612576,81.1320166 L36.4612576,4.6409779 C36.4612576,3.00154144 34.6779697,1.97647514 33.2506667,2.79563536 L8.00881818,17.2977845 C5.72827273,18.6085525 4.32283333,21.0303204 4.32283333,23.6524144 Z" fill="#ECF5FF"></path>
                            <polygon fill="url(#linearGradient-5)" points="5.88916667 25.5122652 5.88916667 92.2442486 35.226803 75.3884088 35.226803 8.65698343"></polygon>
                            <polygon fill="#8CBEF1" points="16.4184697 14.3325138 15.2182121 18.0600276 24.811303 12.5485525 23.1104242 10.4878177"></polygon>
                            <path d="M19.797803,87.416337 L19.797803,91.4658232 C19.797803,91.9390166 20.313,92.2347624 20.7244848,91.9976077 L23.8941515,90.1835138 C24.2450909,89.9815138 24.4620455,89.6087624 24.4620455,89.2047624 L24.4620455,84.6558564 C24.4620455,84.3935912 24.1761364,84.2289779 23.9474091,84.3606685 L20.3875606,86.3990829 C20.0231667,86.608895 19.797803,86.9961547 19.797803,87.416337 Z" fill="#8CBEF1"></path>
                        </g>
                        <g transform="translate(7.287879, 23.436464)" fill="#ECF5FF">
                            <polygon points="0.384575758 3.56624862 0.384575758 4.19010497 5.95475758 0.982099448 5.95475758 0.358801105"></polygon>
                            <polygon points="0.384575758 5.47018232 5.95475758 2.2621768 5.95475758 1.63832044 0.384575758 4.84632597"></polygon>
                            <polygon points="4.31610606 3.86199448 0.384575758 6.12640331 0.384575758 6.75025967 4.31610606 4.48585083"></polygon>
                            <polygon points="0.384575758 9.30985635 5.95475758 6.10185083 5.95475758 5.47743646 0.384575758 8.68544199"></polygon>
                            <polygon points="5.17663636 4.646 0.384575758 7.40536464 0.384575758 8.02977901 5.17663636 5.26985635"></polygon>
                            <polygon points="0.384575758 10.5893757 3.70616667 8.67651381 3.70616667 8.05265746 0.384575758 9.96496133"></polygon>
                        </g>
                        <g transform="translate(15.696970, 72.541436)" fill="#ECF5FF">
                            <polygon points="0.0796060606 3.36369061 0.0796060606 3.98754696 5.64978788 0.780099448 5.64978788 0.156243094"></polygon>
                            <polygon points="0.0796060606 5.26762431 5.64978788 2.05961878 5.64978788 1.43632044 0.0796060606 4.64320994"></polygon>
                            <polygon points="4.01113636 3.65999448 0.0796060606 5.92328729 0.0796060606 6.54714365 4.01113636 4.28329282"></polygon>
                            <polygon points="0.0796060606 9.10729834 5.64978788 5.89929282 5.64978788 5.27543646 0.0796060606 8.48288398"></polygon>
                            <polygon points="4.87166667 4.444 0.0796060606 7.20336464 0.0796060606 7.82666298 4.87166667 5.06785635"></polygon>
                            <polygon points="0.0796060606 10.3868177 3.40119697 8.47451381 3.40119697 7.85009945 0.0796060606 9.76296133"></polygon>
                        </g>
                        <g transform="translate(23.545455, 68.077348)" fill="#ECF5FF">
                            <polygon points="0.142954545 3.57629282 0.142954545 4.20014917 5.71369697 0.992701657 5.71369697 0.368845304"></polygon>
                            <polygon points="0.142954545 5.48022652 5.71369697 2.27222099 5.71369697 1.64836464 0.142954545 4.85581215"></polygon>
                            <polygon points="4.07504545 3.87203867 0.142954545 6.1358895 0.142954545 6.76030387 4.07504545 4.49589503"></polygon>
                            <polygon points="0.142954545 9.31990055 5.71369697 6.11189503 5.71369697 5.48803867 0.142954545 8.6960442"></polygon>
                            <polygon points="4.93613636 4.65660221 0.142954545 7.41540884 0.142954545 8.0398232 4.93613636 5.28045856"></polygon>
                            <polygon points="0.142954545 10.5994199 3.46566667 8.68655801 3.46566667 8.06270166 0.142954545 9.97556354"></polygon>
                        </g>
                        <g transform="translate(7.287879, 77.005525)" fill="#ECF5FF">
                            <polygon points="0.384575758 3.36536464 0.384575758 3.98866298 5.95475758 0.78121547 5.95475758 0.157359116"></polygon>
                            <polygon points="0.384575758 5.26874033 5.95475758 2.06129282 5.95475758 1.43743646 0.384575758 4.64488398"></polygon>
                            <polygon points="4.31610606 3.6611105 0.384575758 5.92440331 0.384575758 6.54881768 4.31610606 4.28496685"></polygon>
                            <polygon points="0.384575758 9.10841436 5.95475758 5.90096685 5.95475758 5.27655249 0.384575758 8.48455801"></polygon>
                            <polygon points="5.17663636 4.44511602 0.384575758 7.20448066 0.384575758 7.82833702 5.17663636 5.06897238"></polygon>
                            <polygon points="0.384575758 10.3884917 3.70616667 8.47507182 3.70616667 7.85121547 0.384575758 9.76463536"></polygon>
                        </g>
                    </g>
                    <path d="M19.5057273,37.1774862 C22.6882879,35.348884 25.3068788,35.4588122 25.4447879,35.4649503 C28.7904848,35.197663 29.1767424,39.8525912 28.862803,41.3413646 C28.5477424,42.8312541 28.8986818,43.1013315 29.0550909,43.3853591 C29.2115,43.6693867 30.2032121,44.6213536 30.4840758,45.1369558 C30.7666212,45.651442 29.8186364,46.5330994 29.5237576,46.8985967 C29.2294394,47.2640939 29.4643333,47.672 29.5585152,48.0531215 C29.652697,48.4359171 29.0192121,49.2556354 28.9861364,49.2986022 C29.2434545,49.5251547 29.1363788,49.9604033 29.0747121,50.2444309 C29.0130455,50.5284586 28.6228636,51.1339006 28.6026818,51.1657072 C28.7607727,53.076337 27.8867879,53.9803149 26.5553485,54.7459061 C25.9913788,55.0695525 25.3461212,55.3680884 24.6616212,55.7084751 C24.6201364,55.7296796 24.5792121,55.751442 24.5377273,55.7748785 C22.3592121,57.0264972 22.2852121,61.4364586 22.2824091,61.6685912 L12.4314394,67.3301713 C16.0176364,58.8969503 13.9366667,54.7832928 13.8262273,54.5662265 C12.0165909,53.1137238 12.1561818,50.1255746 12.1629091,49.9676575 C12.3344545,44.2089834 15.7827424,40.2655193 15.9638182,40.0579392 C17.1259545,38.7717238 18.3441515,37.8448674 19.5057273,37.1774862 Z" id="Shape" fill="#ECF5FF"></path>
                </g>
                <g id="Group" transform="translate(70.000000, 28.000000)">
                    <g transform="translate(12.095928, 59.713347)" id="Shape">
                        <path d="M47.2846316,34.0659117 L47.2472442,34.0437957 L26.5950967,22.0303548 C26.2855509,21.8512148 25.9045292,21.850109 25.5944336,22.0303548 L6.61152422,33.0529964 L2.3647539,35.5156191 C1.99967681,35.7279332 1.99912699,36.2570598 2.36365427,36.4699268 L3.04102624,36.8635926 L23.6926239,48.8770334 C24.0021696,49.0572793 24.3837412,49.0572793 24.693287,48.8770334 L44.6862063,37.2683164 L47.2840818,35.762766 C47.933963,35.3862402 47.9345128,34.4435433 47.2846316,34.0659117 Z" fill="#2B3990" opacity="0.07"></path>
                        <path d="M44.6884056,13.5001926 L41.3411325,15.6509789 L39.8489348,17.0371026 L5.44261774,16.244795 L4.49088814,15.3640231 L0.268859488,14.4705345 L0.268859488,20.5010297 C0.263361339,20.6917806 0.353530983,20.8830845 0.541017866,20.992559 L1.21784001,21.3862247 L21.8699874,33.3996656 C22.1789834,33.5799114 22.5611048,33.5799114 22.8701008,33.4002185 L42.8635699,21.7920543 L45.4614454,20.2853981 C45.7962826,20.0902239 45.9573784,19.7452135 45.9469319,19.4051792 L45.9474817,19.4040734 L45.9474817,13.3735782 L44.6884056,13.5001926 Z" fill="url(#linearGradient-6)"></path>
                        <path d="M45.462545,12.5580487 L45.4246078,12.5364855 L24.7730101,0.52304469 C24.4634643,0.342798845 24.0818928,0.342798845 23.772347,0.52304469 L4.78888782,11.5456863 L0.542117496,14.007756 C0.177040399,14.2200702 0.176490584,14.7497497 0.541567681,14.9620638 L1.21838983,15.3562825 L21.8705373,27.3691704 C22.1795332,27.5488633 22.5616546,27.5488633 22.8706506,27.3691704 L42.8641197,15.7610063 L45.4619952,14.254903 C46.1113266,13.8783771 46.1113266,12.9356803 45.462545,12.5580487 Z" fill="#ECF5FF"></path>
                    </g>
                    <g id="Shape">
                        <polygon fill="url(#linearGradient-7)" points="0.814825688 24.4266293 0.814825688 50.8857241 41.4906821 27.219887 41.4906821 0.761345178"></polygon>
                        <polygon fill="#ECF5FF" points="31.082686 10.3121633 31.082686 9.34624465 39.7004848 4.33308799 39.7004848 5.29845377"></polygon>
                        <polygon fill="#ECF5FF" points="31.082686 12.1654887 31.082686 11.2001229 39.7004848 6.18641336 39.7004848 7.15177914"></polygon>
                        <polygon fill="#ECF5FF" points="31.082686 14.0188141 31.082686 13.0528954 39.7004848 8.03973873 39.7004848 9.00455161"></polygon>
                        <g transform="translate(17.594077, 12.163830)" fill="#ECF5FF">
                            <polygon points="8.65353678 0.0409147009 8.65353678 1.00572758 0.0357379688 6.01999005 0.0357379688 5.05462427"></polygon>
                            <polygon points="8.65353678 2.85905295 0.0357379688 7.87331542 0.0357379688 6.90739674 8.65353678 1.89424007"></polygon>
                            <polygon points="8.65353678 4.71237832 0.0357379688 9.72608789 0.0357379688 8.76072211 8.65353678 3.74701254"></polygon>
                            <polygon points="8.65353678 9.35785558 0.0357379688 14.3715651 0.0357379688 13.4061994 8.65353678 8.3924898"></polygon>
                            <polygon points="8.65353678 11.210628 0.0357379688 16.2248905 0.0357379688 15.2595247 8.65353678 10.2458152"></polygon>
                            <polygon points="8.65353678 13.0645063 0.0357379688 18.077663 0.0357379688 17.1122972 8.65353678 12.0985876"></polygon>
                            <polygon points="8.65353678 17.7094307 0.0357379688 22.7231402 0.0357379688 21.7583274 8.65353678 16.7440649"></polygon>
                            <polygon points="8.65353678 19.562756 0.0357379688 24.5764656 0.0357379688 23.6110998 8.65353678 18.5973903"></polygon>
                            <polygon points="8.65353678 21.4160814 0.0357379688 26.429791 0.0357379688 25.4638723 8.65353678 20.4507156"></polygon>
                        </g>
                        <polygon fill="#ECF5FF" points="31.082686 15.8721394 31.082686 14.9062208 39.7004848 9.8930641 39.7004848 10.8584299"></polygon>
                        <polygon fill="#ECF5FF" points="11.2107259 32.181071 14.2578001 30.4084692 14.2578001 40.4392057 11.2107259 42.2118075"></polygon>
                        <polygon fill="#ECF5FF" points="7.18168228 29.0914581 10.2287565 27.3183035 10.2287565 42.7879307 7.18168228 44.5599796"></polygon>
                        <polygon fill="#ECF5FF" points="3.15318848 26.020644 6.20026268 24.2480422 6.20026268 45.1361028 3.15318848 46.9087046"></polygon>
                        <path d="M34.6097486,22.6551334 L34.6097486,17.0442903 C34.7048666,16.9829183 34.7988849,16.9176759 34.8962022,16.8618329 C37.5408118,15.3264258 39.6922376,16.5588429 39.699935,19.6147288 C39.708732,22.6700617 37.5716015,26.3927466 34.9269918,27.9281537 C32.2818323,29.4635608 30.1315062,28.2305907 30.1227092,25.1752578 C30.1227092,25.1304728 30.1276575,25.0834762 30.1282073,25.0381383 L34.6097486,22.6551334 Z" fill="#ECF5FF"></path>
                        <path d="M0.651530662,24.1429909 L0.488235635,24.2375371 L0.488235635,51.4546596 L41.654527,27.5046312 L41.8172722,27.4095322 L41.8172722,0.192409675 L0.651530662,24.1429909 Z M41.1640921,27.0307948 L1.14086593,50.3167886 L1.14086593,24.6162745 L41.1640921,1.33083358 L41.1640921,27.0307948 Z" fill="#ECF5FF"></path>
                    </g>
                </g>
                <g id="Group" transform="translate(64.000000, 112.000000)" fill="#ECF5FF">
                    <g>
                        <path d="M1.01174222,8.57793937 C0.882906136,8.65197285 0.774099187,8.73871357 0.678284113,8.83760905 L0.271746708,9.29562217 L0.271746708,9.87573529 C0.27391202,10.3768425 0.521298963,10.8740824 1.01174222,11.1547466 L7.8416789,15.0326647 C8.44147044,15.3729977 9.11055198,15.5299045 9.77259625,15.4995176 L9.77259625,3.59780633 L1.01174222,8.57793937 Z" id="Shape"></path>
                        <path d="M24.6125649,5.57461086 C24.4999686,5.42709638 24.357058,5.29726154 24.183833,5.19726109 L17.4139837,1.29945339 C16.3048025,0.659119005 14.9509409,0.654146606 13.837429,1.28785113 L9.77313757,3.59780633 L9.77313757,15.4995176 C10.3339535,15.4779706 10.8936867,15.3216163 11.4003699,15.0326647 L24.1757131,7.7702009 C24.6780656,7.48401176 24.9238285,6.97019729 24.9178739,6.45969774 L24.9178739,5.93262353 L24.6125649,5.57461086 Z" id="Shape"></path>
                        <path d="M1.01174222,8.08125204 L13.8368876,0.791163801 C14.9509409,0.158011765 16.3048025,0.162984163 17.4134424,0.802213575 L24.1832917,4.70167873 C25.1641782,5.26742715 25.1598476,6.71218507 24.1746304,7.27406606 L11.3992872,14.5348724 C10.2928126,15.163052 8.94977753,15.1674719 7.84113757,14.5348724 L1.0112009,10.6586118 C0.0232771084,10.0956258 0.0232771084,8.64368552 1.01174222,8.08125204 Z" id="XMLID_5190_"></path>
                    </g>
                    <g transform="translate(9.743906, 9.944796)">
                        <path d="M1.16710339,8.73926606 C1.03934996,8.81385204 0.929460353,8.90004027 0.836351919,8.99506833 L0.425483889,9.45363394 L0.425483889,10.037062 C0.429814514,10.5337493 0.676118801,11.0359615 1.1692687,11.3160733 L7.99812272,15.1939914 C8.59683161,15.5310095 9.26645447,15.6868113 9.92849874,15.6597394 L9.92849874,3.75858054 L1.16710339,8.73926606 Z" id="Shape"></path>
                        <path d="M24.767926,5.73151765 C24.6564124,5.5873181 24.5140431,5.45914072 24.3386528,5.36024525 L17.5698862,1.45580769 C16.460705,0.818788235 15.1046781,0.814920814 13.9938728,1.44696787 L9.92904007,3.75858054 L9.92904007,15.6597394 C10.4909386,15.6348774 11.0474239,15.4785231 11.5562723,15.1939914 L24.3326982,7.92766018 C24.8345094,7.64147104 25.0802723,7.13318145 25.0732351,6.62212941 L25.0732351,6.09450271 L24.767926,5.73151765 Z" id="Shape"></path>
                        <path d="M1.16710339,8.24257873 L13.9933315,0.950280543 C15.1046781,0.317128507 16.460705,0.321548416 17.5693449,0.959120362 L24.3381115,4.86190045 C25.320622,5.42488643 25.3168327,6.87295928 24.3316156,7.43042036 L11.5551897,14.6967516 C10.450339,15.3232738 9.10297338,15.3232738 7.9975814,14.6967516 L1.16872737,10.8149661 C0.180262258,10.2569525 0.180262258,8.80501222 1.16710339,8.24257873 Z" id="XMLID_5189_"></path>
                    </g>
                    <g transform="translate(20.029140, 20.442081)">
                        <path d="M0.781677781,8.34478914 C0.655007005,8.41827014 0.544576072,8.50390588 0.448760997,8.60390633 L0.0400582796,9.06247195 L0.0400582796,9.6409276 C0.0438475764,10.1420348 0.292858504,10.6403796 0.783843093,10.9210439 L7.61323844,14.7984095 C8.21302998,15.1404 8.88157019,15.2950968 9.54415579,15.2652624 L9.54415579,3.3652086 L0.781677781,8.34478914 Z" id="Shape"></path>
                        <path d="M24.3825004,5.34090814 C24.2715282,5.19339367 24.1291589,5.0646638 23.9537686,4.96466335 L17.1844606,1.0646457 C16.0752793,0.424863801 14.7225004,0.421548869 13.6089885,1.05304344 L9.54469711,3.3652086 L9.54469711,15.2652624 C10.105513,15.2437154 10.663081,15.0890186 11.1713881,14.7984095 L23.9472726,7.5359457 C24.4474598,7.25141403 24.6943054,6.73594208 24.6878095,6.22654751 L24.6878095,5.70002579 L24.3825004,5.34090814 Z" id="Shape"></path>
                        <path d="M0.781677781,7.84810181 L13.6084472,0.556356109 C14.7225004,-0.0767959276 16.0752793,-0.0718235294 17.1839193,0.567958371 L23.9532272,4.46742353 C24.9351964,5.03372443 24.9308658,6.47792986 23.94619,7.03925837 L11.1703054,14.3017222 C10.0643721,14.9282443 8.7180891,14.9282443 7.61269711,14.3017222 L0.783301765,10.4243566 C-0.205163351,9.86192308 -0.207328663,8.40943032 0.781677781,7.84810181 Z" id="XMLID_5188_"></path>
                    </g>
                </g>
                <g id="Group" transform="translate(1.000000, 11.000000)">
                    <polygon id="Shape" fill="url(#linearGradient-8)" opacity="0.265858209" points="0.131072464 74.4538889 29.2489855 58.0872222 29.2489855 0.477222222 0.131072464 16.8211111"></polygon>
                    <polygon id="Shape" fill="url(#linearGradient-9)" points="8.52852174 79.5366667 37.6469855 63.17 37.6469855 5.56 8.52852174 21.9044444"></polygon>
                    <polygon id="Shape" fill="#FFFFFF" points="11.8774783 73.7127778 34.298029 61.1105556 34.298029 57.91 11.8774783 70.4955556"></polygon>
                    <g transform="translate(12.115942, 20.000000)">
                        <path d="M1.56405797,4.67555556 L8.68327536,0.679444444 C9.84915942,0.025 11.2832464,0.875555556 11.2832464,2.22111111 L11.2832464,8.27944444 L11.2832464,12.9 L8.53678261,9.84722222 L3.5295942,12.6472222 C2.18031884,13.4005556 0.524289855,12.4166667 0.524289855,10.8611111 L0.524289855,6.45944444 C0.52373913,5.71888889 0.921913043,5.03555556 1.56405797,4.67555556 Z" id="Shape" fill="url(#linearGradient-10)"></path>
                        <rect id="Rectangle-path" fill="#FFFFFF" transform="translate(6.015922, 4.700939) rotate(60.448423) translate(-6.015922, -4.700939) " x="5.5159039" y="0.111223389" width="1" height="9.17876153"></rect>
                        <rect id="Rectangle-path" fill="#FFFFFF" transform="translate(6.014605, 6.289870) rotate(60.351056) translate(-6.014605, -6.289870) " x="5.51459412" y="1.69974118" width="1" height="9.17973313"></rect>
                        <rect id="Rectangle-path" fill="#FFFFFF" transform="translate(6.015523, 7.872068) rotate(60.448423) translate(-6.015523, -7.872068) " x="5.51550509" y="3.28207462" width="1" height="9.17931708"></rect>
                        <rect id="Rectangle-path" fill="#FFFFFF" transform="translate(6.015581, 9.514898) rotate(60.448423) translate(-6.015581, -9.514898) " x="5.5155633" y="4.92490373" width="1" height="9.17931708"></rect>
                    </g>
                    <g transform="translate(12.115942, 48.888889)">
                        <path d="M1.56405797,4.69666667 L8.68327536,0.7 C9.84915942,0.0455555556 11.2832464,0.896111111 11.2832464,2.24166667 L11.2832464,8.30055556 L11.2832464,12.9205556 L8.53678261,9.86833333 L3.5295942,12.6677778 C2.18031884,13.4211111 0.524289855,12.4377778 0.524289855,10.8822222 L0.524289855,6.48 C0.52373913,5.73944444 0.921913043,5.05666667 1.56405797,4.69666667 Z" id="Shape" fill="url(#linearGradient-10)"></path>
                        <rect id="Rectangle-path" fill="#FFFFFF" transform="translate(6.014322, 4.726606) rotate(60.351056) translate(-6.014322, -4.726606) " x="5.51431083" y="0.136477182" width="1" height="9.17973313"></rect>
                        <rect id="Rectangle-path" fill="#FFFFFF" transform="translate(6.016519, 6.307655) rotate(60.448423) translate(-6.016519, -6.307655) " x="5.51650097" y="1.71766106" width="1" height="9.17931708"></rect>
                        <rect id="Rectangle-path" fill="#FFFFFF" transform="translate(6.014309, 7.897855) rotate(60.351056) translate(-6.014309, -7.897855) " x="5.51429827" y="3.30772585" width="1" height="9.17973313"></rect>
                        <rect id="Rectangle-path" fill="#FFFFFF" transform="translate(6.005583, 9.535778) rotate(60.548616) translate(-6.005583, -9.535778) " x="5.50555678" y="4.94578243" width="1" height="9.17917127"></rect>
                    </g>
                    <g transform="translate(23.681159, 31.111111)">
                        <path d="M8.246,0.510555556 L1.12568116,4.50666667 C0.483536232,4.86722222 0.0864637681,5.55 0.0864637681,6.29111111 L0.0864637681,10.6927778 L0.0864637681,16.2444444 L2.622,12.7844444 L8.0984058,9.67944444 L8.70144928,9.33444444 C10.025942,8.57833333 10.8454203,7.16166667 10.8454203,5.62611111 L10.8454203,2.05222222 C10.8454203,0.706111111 9.41133333,-0.143888889 8.246,0.510555556 Z" id="Shape" fill="url(#linearGradient-10)"></path>
                        <rect id="Rectangle-path" fill="#FFFFFF" transform="translate(5.572211, 4.534953) rotate(60.292072) translate(-5.572211, -4.534953) " x="5.07220339" y="-0.0549055699" width="1" height="9.17928045"></rect>
                        <rect id="Rectangle-path" fill="#FFFFFF" transform="translate(5.571944, 6.120421) rotate(60.292072) translate(-5.571944, -6.120421) " x="5.07193662" y="1.53056243" width="1" height="9.17928045"></rect>
                        <rect id="Rectangle-path" fill="#FFFFFF" transform="translate(5.572002, 7.700135) rotate(60.099484) translate(-5.572002, -7.700135) " x="5.0720012" y="3.1102974" width="1" height="9.17952642"></rect>
                        <rect id="Rectangle-path" fill="#FFFFFF" transform="translate(5.571989, 9.342893) rotate(60.099484) translate(-5.571989, -9.342893) " x="5.07198837" y="4.75305545" width="1" height="9.17952642"></rect>
                    </g>
                </g>
            </g>
        </g>
    </g>
</svg>